<?xml version="1.0" encoding="utf-8"?>
<!-- Generator: Adobe Illustrator 20.0.0, SVG Export Plug-In . SVG Version: 6.00 Build 0)  -->
<svg version="1.1" id="Layer_1" xmlns="http://www.w3.org/2000/svg" xmlns:xlink="http://www.w3.org/1999/xlink" x="0px" y="0px"
	 viewBox="0 0 1000 800" style="enable-background:new 0 0 1000 800;" xml:space="preserve">
<style type="text/css">
	.st0{fill:#FFFFFF;}
	.st1{fill:none;}
	.st2{font-family:'Avenir-Roman';}
	.st3{font-size:58px;}
</style>
<g id="_x33_Nt9ai.tif">
	<g>
		<path class="st0" d="M516.2,327.9c-2.2,2.1-4.6,4.1-6.7,6.3c-6.7,7.2-13.3,14.6-19.9,21.8c-2.6,2.8-2.6,3.8,1,4.9
			c4.5,1.4,9.2,2.2,13.7,3.4c0.7,0.2,1.5,0.8,1.7,1.4c1.7,6.1,3.3,12.2,4.9,18.4c0.2,0.7,0.1,1.7-0.3,2.4c-2.6,4.3-5.1,8.7-7.9,12.9
			c-2.2,3.3-2.5,6.8-2.4,10.6c0.3,7.7,0.4,15.5,0.5,23.3c0,2-0.7,3.7-2.3,4.8c-3.1,1.9-6.3,3.8-9.5,5.5c-1.2,0.6-2.1,1.3-1.4,2.4
			c0.3,0.6,1.9,1.1,2.4,0.8c3.7-1.9,7.4-4,10.9-6.2c3-1.9,4-4.9,3.9-8.4c-0.4-7.9-0.7-15.8-1-23.7c-0.1-3,0.2-5.7,2.1-8.1
			c1.6-2.1,2.9-4.4,4.3-6.7c2.4-4,4.9-7.9,9.3-10.1c5-2.5,9.9-5.3,14.9-7.9c1-0.5,2-1,3.6-1.7c-0.5,3.7-1,6.7-1.5,9.8
			c-1.2,7.6-2.4,15.2-3.5,22.8c-0.1,0.8,0.3,2.2,0.8,2.4c0.8,0.2,1.9-0.2,2.7-0.7c1.5-0.8,2.8-2,4.2-2.8c3.4-1.9,6.9-3,10.7-0.7
			c1.2,0.8,2.3,0,2.1-1.4c-0.1-0.8-0.9-1.9-1.7-2.3c-3.2-1.7-6.5-1.3-9.7,0c-1.8,0.7-3.6,1.7-5.6,2.6c0.2-2,0.4-3.8,0.7-5.6
			c1.3-8.5,2.7-17.1,4-25.6c0.1-0.8-0.1-2.3-0.7-2.5c-0.7-0.4-2-0.2-2.8,0.3c-8,4-15.9,8.2-23.9,12.4c-2.1-5.5-4-11.4-4.5-17.9
			c1.1,0,1.8,0,2.6,0c7-0.1,13.8-1.4,20.4-3.7c0.8-0.3,1.8-1.1,1.9-1.8c0.1-0.6-0.8-1.5-1.5-2c-1.3-1-2.8-1.7-4.1-2.7
			c-3-2.3-5.2-5.1-5.1-9.1c0-1.3,0.1-2.5-1.6-2.5c-1.6,0-1.8,1.2-1.8,2.5c-0.2,5.1,2.5,8.6,6.2,11.7c0.6,0.5,1.2,0.9,1.8,1.4
			c0,0.3-0.1,0.6-0.1,0.8c-5.6,0.7-11.1,1.3-16.7,2c-1.8,0.2-2.3-0.4-2.3-2.2c0-11.1,5.2-20.1,11.5-29c3,4.5,6,8.8,8.9,13.1
			c4.5,6.6,8.9,13.3,13.4,19.9c0.5,0.7,1.5,1.3,2.2,1.4c0.5,0,1.2-1.1,1.5-1.8c2.9-6.8,5.7-13.6,8.6-20.4c0.3-0.8,1.3-1.5,2.1-1.8
			c4.5-1.5,8.2-6,8.4-10.7c0-1.4-0.5-2.9-1.2-4.2c-0.3-0.6-1.5-0.7-2.3-1c-0.2,0.9-0.8,1.9-0.6,2.6c1.7,4.2-1.8,9.7-6.3,10.1
			c-0.8,0.1-1.9,0.8-2.3,1.5c-2.3,4.7-4.5,9.5-6.7,14.2c-0.8,1.8-1.5,3.6-2.3,5.7c-6.7-10-13.2-19.8-19.7-29.5
			c0.3-0.1,0.4-0.2,0.6-0.2c0.2-0.1,0.4-0.1,0.7-0.1c9.3-1.1,15.6-6.4,19.2-14.8c4.7-10.7,0.6-19.9-10.3-23.8
			c-11.4-4.1-23.6,2.2-27.6,14.1c-2.5,7.3-1.9,14.1,3.7,19.8C512.2,325.6,514.3,326.6,516.2,327.9z M660.4,178.6
			c-5.1,0.9-9.8,1.5-14.5,2.5c-19.4,4-34.1,14.8-44.7,31.4c-0.4,0.7-0.6,1.9-0.3,2.5c0.3,0.5,1.6,0.8,2.3,0.7
			c7.5-1.5,15-3.2,22.6-4.6c4.2-0.8,8.6-1,13.1-1.5c-0.2,1.1-0.3,1.8-0.4,2.5c-1.7,7.8-3.4,15.6-5,23.4c-0.9,4.6-0.7,4.8,3.9,5.4
			c3.8,0.5,7.6,0.5,11.1-1.1c1-0.5,2.4-1,1.6-2.6c-0.7-1.4-1.8-1.2-3-0.6c-3.3,1.5-6.7,1.6-10.3,0.6c0-0.5-0.1-1.1,0-1.5
			c1.8-8.5,3.6-16.9,5.4-25.4c0.1-0.5,0.6-1.2,1-1.2c3.3-0.5,6.6-0.8,10.1-1.2c-0.8,2.4-1.6,4.5-2.2,6.6c-1.6,5.3-3.2,10.6-4.6,16
			c-0.2,0.7,0.3,2.2,0.9,2.5c3.6,2.2,12.5,0.7,15.4-2.5c0.4-0.4,0.7-1.3,0.5-1.7c-0.3-0.5-1.1-1-1.7-1c-0.6,0-1.2,0.4-1.7,0.8
			c-3,2-6.2,2.3-9.9,1.6c0.4-1.7,0.7-3.2,1.2-4.7c2-6.1,4-12.2,6-18.4c0.8-2.4,0.1-3.2-2.4-2.9c-2.8,0.3-5.6,0.8-8.4,1.1
			c-1,0.1-2.1,0.1-3.2,0.2c0.2-2.3,0.5-4.3,0.6-6.3c0.2-2.9-0.6-3.6-3.3-2.6c-7.2,2.8-14.4,5.7-21.6,8.6c-3.8,1.5-7.6,3.2-11.9,5
			c0.5-0.7,0.6-1,0.7-1.2c4.6-6.1,10.1-11.2,16.4-15.5c11.2-7.5,23.8-10.3,36.9-11.4c0.6-0.1,1.5,0.5,1.9,1.1
			c6,7.8,13.9,11.1,23.6,9.6c6.1-0.9,11.3-3.6,14.2-9.5c5.5-11.3-4.1-27-17.1-27.7c-4.1-0.2-8.2,0.4-12.3,0.7c0-3.2,0.7-7-0.2-10.4
			c-1.3-5.1-3.8-9.9-5.6-14.9c-0.8-2.1-1.4-4.3-2-6.5c-0.5-1.9-0.7-3.9-1.4-5.8c-0.2-0.6-1.5-1-2.3-1c-0.3,0-1.1,1.2-1,1.7
			c1.4,5.9,2,12,5.6,17.2c3.6,5.3,4.1,11.1,3.6,17.2c-0.3,2.9-0.7,5.5-3.2,7.6c-1.9,1.6-2.9,4.3-4.3,6.6c-0.2,0.4-0.4,0.8-0.7,1.4
			c-1.6-2.4-3.2-4.6-4.7-6.8c-4.7-7-10.7-12.2-19.2-13.9c-5.5-1.1-11-2.2-16.6-2.8c-2.5-0.3-3.1-1.2-3.4-3.4
			c-0.4-2.8-1.2-5.6-2.1-8.4c-0.2-0.6-1.5-0.9-2.4-1.1c-0.2,0-1,1.3-0.9,1.8c0.8,3.9,1.8,7.8,2.6,11.7c0.3,1.6,1,2.2,2.6,2.4
			c6.4,1.1,12.8,2.1,19.2,3.4C649.1,155.4,655,166.7,660.4,178.6z M413.7,145.3c11.6-17.1,9.4-33.1-2.1-48.8
			c0.9-0.2,1.7-0.4,2.6-0.6c14.7-3.2,27.6-9.7,37.6-21.3c0.5-0.5,1.3-0.9,2-1.1c3.8-0.9,6.8-2.9,9.1-6c0.4-0.6,0.1-1.7,0.1-2.5
			c-0.9,0.1-1.8,0.1-2.6,0.4c-0.6,0.2-0.8,1.1-1.4,1.4c-2,1.2-4,2.6-6.1,3.2c-1.2,0.4-2.2,0.5-3.1,1.6c-5.3,6.3-11.7,11.3-19.1,15
			c-6,2.9-12.3,5-18.9,6.1c0.5-0.5,1-0.8,1.5-1.2c5.5-3.8,7.9-9,7.1-15.7c-0.6-5.1-3.4-9.1-7.1-12.4c-9.6-8.7-25.5-9.5-35.2-1.7
			c-8.1,6.5-10.4,19.3,0.5,27.1c3.6,2.6,7.5,4.5,11.9,5.3c3.8,0.7,7.7,0.9,11.5,1.4c-0.2,0.1-0.4,0.3-0.6,0.4
			c-6.7,2.7-13.5,5.3-20.1,8.2c-4.4,1.9-8.4,1.2-11.8-1.7c-3.8-3.2-7.3-6.9-10.9-10.3c-0.7-0.7-1.9-1.5-2.7-1.3
			c-5.6,1-9.4-1.5-12.4-5.9c-0.4-0.6-1.5-0.6-2.3-0.9c-0.2,0.9-0.9,2-0.5,2.6c3,5.1,7.4,8,13.5,7.8c1.3,0,2.1,0.3,3,1.2
			c4.6,4.1,9.2,8.1,13.9,12c2.1,1.8,4.5,2.2,7.2,1.1c8.3-3.3,16.7-6.5,25-9.8c3.9-1.6,3.8-1.7,6.6,1.4c0.1,0.2,0.3,0.3,0.4,0.5
			c6.6,8.2,8.7,17.5,7.3,27.7c-0.7,5.2-2.6,9.8-6.2,13.7c-2.5-2-4.8-4.1-7.4-5.9c-5.4-3.8-11.5-6.1-18.1-6.6
			c-1.7-0.1-2.4,0.5-2.3,2.1c0,0.7,0,1.5,0.2,2.2c1.2,5.2,2.3,10.4,3.6,15.5c1,4,2,7.9,3.2,12.5c-2.8-0.7-5-1.3-7.2-1.7
			c-0.7-0.1-1.5,0.6-2.3,1c0.4,0.7,0.6,1.7,1.1,2.1c0.7,0.5,1.8,0.7,2.7,0.9c2,0.5,4.1,0.8,6.1,1.4c2.4,0.6,3.4,0,2.9-2.4
			c-1.3-6.2-2.9-12.3-4.3-18.5c-0.9-3.8-1.6-7.5-2.5-11.5c18.9,2.2,32.5,21.4,36.9,40.8c-4.1-0.8-8.1-1.3-11.9-2.4
			c-5.1-1.4-10-3.2-15-4.8c-1.7-0.5-2.8,0.2-2.7,1.8c0.2,3.3,0.5,6.6,0.7,9.9c0.1,1.2,0.1,2.6,1.8,2.4c1.6-0.2,1.8-1.4,1.6-2.8
			c-0.3-2.3-0.3-4.7-0.4-7.3c2,0.7,3.7,1.2,5.3,1.8c7,2.3,14,4.7,21.6,4.6c2.7,0,3.3-0.7,2.6-3.4
			C424.8,163.3,420.4,153.6,413.7,145.3z M293.1,611.1c-1.7-0.9-3.4-1.8-5-2.8c-10.6-6.8-18-16.1-22.4-27.9
			c-0.3-0.8-0.9-1.9-1.6-2.1c-4-1.3-6.6-3.8-7.7-7.9c-0.1-0.5-1.2-1.3-1.5-1.2c-0.6,0.2-1.4,0.9-1.5,1.5c-0.2,0.8,0.1,1.8,0.4,2.6
			c1.4,3.4,3.8,5.7,7.1,7.3c0.9,0.4,1.8,1.3,2.1,2.2c2.4,5.9,5.5,11.4,9.6,16.2c9.8,11.5,21.9,18.8,37.5,19.5c1,0,2.4,1,2.8,1.9
			c1.3,3,2.5,6,3.1,9.1c1.4,7.3,1.2,14.6-0.1,21.9c-0.8,4.5-2.1,8.8-3.2,13.6c-0.9-0.7-1.2-1-1.6-1.2c-6.4-4.2-12.8-8.5-19.3-12.7
			c-0.8-0.5-1.9-0.9-2.9-0.8c-7.9,0.6-15.6,2.4-22.9,5.5c-1.9,0.8-3.8,1.7-5.3,2.4c-1.5-3-2.8-5.8-4.2-8.5c-0.2-0.4-0.5-0.9-0.8-1
			c-0.8-0.2-1.8-0.4-2.4-0.1c-0.4,0.2-0.5,1.6-0.1,2.2c1.8,3,3.9,5.8,3.4,9.6c-0.1,0.8,0.1,2.3,0.5,2.5c0.7,0.3,2,0.1,2.8-0.3
			c7.8-4.5,16.3-7,25-8.7c2.4-0.5,4.8-0.4,7,1.1c3.8,2.5,7.9,4.7,11.6,7.3c9.4,6.7,17.4,14.7,22.2,25.5c0.6,1.2,1,2.5,1.3,3.3
			c-8.5-3.1-17-6.2-25.5-9.3c-2.1-0.8-3.1-0.2-3.6,1.8c-1.2,5.1-0.1,9.7,3.1,13.8c0.4,0.5,1.6,0.4,2.5,0.6c0.1-0.8,0.4-1.6,0.3-2.4
			c-0.1-0.5-0.7-0.9-1-1.5c-1.6-2.7-2.3-5.5-1.6-8.8c9.7,2.9,18.9,6.4,27.5,11.4c0.7,0.4,2.2,0.7,2.5,0.3c0.5-0.6,0.7-1.9,0.5-2.7
			c-2.5-10-7.9-18.3-15.1-25.5c-1-1-1.4-1.8-0.9-3.4c4-10.7,5.3-21.8,4.1-33.2c-0.4-3.6-1.6-7.2-2.6-10.7c-0.3-1.2-1.2-2.3-1.9-3.5
			c7.8-1.6,14.3-5.1,19.6-10.6c7.3-7.7,11.7-17,15.2-26.8c0.5-1.3,1-2.1,2.4-2.4c3.4-0.9,6.1-2.9,8.2-5.8c0.3-0.5,0.3-1.9,0-2
			c-0.8-0.3-1.7-0.3-2.5-0.1c-0.5,0.1-0.7,1-1.2,1.3c-2.1,1.3-4.1,3-6.4,3.5c-1.8,0.4-2.6,1-3.1,2.7c-2.5,7.6-5.6,15-10.3,21.6
			c-4.4,6.2-9.7,11.3-16.9,13.9c1.2-1.6,2.5-3.2,3.7-4.9c2.4-3.3,3.2-6.9,2.9-10.9c-0.9-14.3-20.7-27.2-35.1-19.9
			c-8.1,4.1-13,14-7.7,23.3C286.5,604.8,289.6,608,293.1,611.1z M282.9,401.7c0.7,0.4,0.8,0.4,0.8,0.5c0.2,0.9,0.4,1.7,0.6,2.6
			c3.2,14.6,7.7,28.8,15.2,41.9c3.4,6,8.6,9.4,14.8,11.7c0.7,0.2,1.7-0.6,2.6-0.9c-0.4-0.7-0.6-1.7-1.3-2.1
			c-1.7-1.1-3.5-1.8-5.3-2.8c-6-3.5-9-9.3-11.8-15.2c-6.1-13.2-10.1-27-12.4-41.3c-0.8-4.8-1.2-9.7-1.1-14.5c0.1-3.3,1.1-6.7,1.9-10
			c2-8.1,5.3-15.6,10.8-21.9c0.5-0.5,1.4-0.9,2.1-0.9c4.5,0.3,9,1,13.5,0.9c7.4-0.2,14.2-2.6,19.9-7.6c5.3-4.7,8.8-10.8,11.3-17.3
			c0.5-1.4,1-2.4,2.7-2.6c0.8-0.1,1.7-1.1,2.2-1.9c2-3.3,1.3-5.9-2-8.5c0.3-2,0.6-4,0.9-5.9c0.2-1.2,0.5-2.6-1.3-2.7
			c-1.5-0.1-1.9,1-2.1,2.3c-0.5,3.1-1.1,6.3-1.5,9.4c-1.3,9.7-5.4,17.9-12.6,24.6c-3.7,3.5-8.2,5.6-13.8,6.5c1-1,1.7-1.5,2.3-2.1
			c3.1-3.1,4.4-6.9,3.9-11.1c-1.3-10-10.1-19.5-20-21.8c-11.5-2.6-20.2,5.2-19.5,15.8c0.2,2.4,0.6,4.8,0.9,7.2
			c-3.2-3.3-6.2-6.8-8.8-10.6c-5.3-7.6-8.4-16.1-9.6-25.2c-0.8-6.2-1.5-12.5-2.2-18.7c-0.2-1.3-0.7-2.2-2.1-1.9
			c-1.4,0.2-1.5,1.2-1.3,2.4c0.3,2.2,0.6,4.4,0.9,6.6c-2.2,0.9-3.5,2.6-3.2,4.8c0.3,2.7,1.3,5.2,4.5,5.8c2.4,22.1,14.6,37.9,32.4,50
			c-1.7,2.6-3.6,5-5.1,7.6c-4.5,7.7-6.7,16.2-8.2,24.9c-1.9,11.2-2.6,22.3-1.4,33.6c0.9,8.6,1.9,17.2,2.6,25.8
			c0.3,3.6,0.1,7.2,0.1,10.6c-3.3,1-6.2,1.8-9.1,2.7c-1.4,0.4-2.5,1.2-1.7,2.7c0.3,0.5,1.9,0.7,2.8,0.6c2.9-0.6,5.7-1.8,8.6-2.2
			c2.2-0.3,3-1.2,2.8-3.3c-0.6-8.9-1-17.9-1.6-26.8C284.3,416.1,283.6,409.1,282.9,401.7z M188,170.1c-1-0.8-1.5-1.1-2-1.5
			c-16-12.3-33.8-20.3-54.3-21.3c-1.3-0.1-1.8-0.6-2.1-1.7c-1.9-6-3.8-12-5.8-17.9c-2.1-6.2-3.3-12.6-3.6-19.1
			c-0.1-1.9,0.4-3,2.4-3.5c2.1-0.5,4.2-1.4,6.2-2.5c6.5-3.6,13-7.4,19.4-11.2c3.8-2.2,7.8-3.1,12.1-2.8c8.3,0.5,15.9,3.4,23.1,7.3
			c1.7,0.9,2.8,0.8,4.2-0.2c3.3-2.5,6.9-3.7,11-2.7c0.6,0.1,1.8-0.5,2-1c0.1-0.6-0.4-1.7-0.9-2.1c-0.6-0.5-1.7-0.6-2.5-0.6
			c-3.8-0.4-7.1,0.9-10.3,2.7c-0.8,0.4-2.1,0.5-3,0.2c-5.9-1.9-11.7-4.1-17.6-5.9c-4.5-1.3-9.3-2.1-13.8-0.4
			c-4,1.5-7.6,4.1-11.4,6.3c-0.8,0.5-1.6,1.1-2.7,1.8c1.7-7.3,1.6-10.6-0.8-14.9C130.9,66.8,114.7,62.2,102,68
			c-8.8,4-13.1,12-11.1,20.4c0.3,1.3,0.9,2.5,1.5,4.2c-7.7-3.4-14.5-1.3-21.1,2.2c-3.1,1.7-6.2,3.4-9.3,5.1c-0.9-1-1.7-2-2.6-2.9
			c-3-2.7-6.3-4.7-10.6-3.9c-0.6,0.1-1.1,1.2-1.6,1.9c0.6,0.5,1.3,1.4,1.9,1.3c4.7-0.3,7.7,2.3,10,5.9c1.3,2,2.4,2,4.2,1
			c2.4-1.4,5-2.6,7.4-4.1c8.7-5.2,17.3-5.9,26.5-1c5.9,3.1,12.4,5.1,18.6,7.7c0.5,0.2,1,1.3,1.1,2c0.7,4.6,0.8,9.3,1.9,13.8
			c1.6,6.4,3.8,12.6,5.8,18.8c0.7,2.2,1.3,4.4,2.1,6.8c-11.9,0.5-22.9,3.2-33.3,8.2c-4.8,2.3-9.5,5-14.3,7.4c-2.1,1-4.5,1.6-7.1,2.5
			c-0.1-1.7-0.2-2.9-0.2-4c0.1-2.1,0.4-4.1,0.3-6.2c0-0.7-0.9-1.4-1.4-2.1c-0.7,0.6-1.8,1.2-1.9,1.9c-0.3,2.8-0.4,5.6-0.4,8.4
			c0,1.2,0.3,2.3,0.6,3.5c0.3,1.5,1.2,2.2,2.8,1.7c2.5-0.7,5.1-1.2,7.4-2.3c7.5-3.3,14.7-7.3,22.4-10.3c15.5-6,31.4-7,47.5-2.7
			c13.8,3.7,26,10.6,37,19.5c2.3,1.9,3.4,1.9,4.6-0.9c1.3-3,2-6.3,2.8-9.5c0.1-0.6-0.7-1.4-1-2.1c-0.7,0.5-1.7,0.8-2.1,1.5
			c-0.4,0.7-0.3,1.7-0.5,2.6C189.1,166.3,188.6,168,188,170.1z M862.8,396.2c-2-1.2-4.3-2.5-6.3-4c-8-6-12.6-14.4-15.7-23.7
			c-0.7-2-1.4-3.2-3.7-2.3c-0.6,0.2-1.3,0.1-2,0c-4.2-0.7-7.1-3.2-9-6.8c-0.6-1.1-1.3-1.9-2.6-1.3c-1.3,0.7-1,1.8-0.5,2.9
			c2.6,4.9,6.5,8.1,12.1,8.5c1.9,0.1,2.6,0.9,3.2,2.5c3,8.1,7.1,15.6,13.8,21.1c8.9,7.4,19.1,11.4,30.8,10.2
			c1.5-0.2,2.3,0.2,2.6,1.6c0.8,3.7,2,7.3,2.2,11.1c0.4,7.1-0.1,14.2,0.2,21.3c0.3,7.5-0.8,14.5-4.1,21.3c-2.3,4.8-4.3,9.7-6.8,14.4
			c-1.7,3.2-2.3,3.1-5.4,1.6c-1.4-0.7-3-1.4-4.3-2.4c-5.2-4-10.3-8.2-15.5-12.2c-0.6-0.5-1.9-1.1-2.2-0.8c-0.6,0.5-0.8,1.5-1.1,2.4
			c-0.1,0.2,0,0.4,0,0.7c0.3,3.7-1,6.5-4.2,8.4c-0.5,0.3-0.7,1.4-1,2.1c0.9,0.3,2,1.1,2.6,0.8c2.6-1,4.3-3.1,5.2-5.7
			c0.3-0.8,0.5-1.6,0.8-2.6c0.5,0.4,0.8,0.6,1,0.8c6,5.3,12.5,9.9,19.9,13.2c1.4,0.6,2.6,0.6,3.6-0.6c1.9-2.5,4.3-4.8,5.6-7.7
			c2.7-5.9,5-12,7.3-18.1c0.6-1.6,1.3-2.1,3.1-1.6c16.2,3.9,32.3,7.8,48.5,11.6c5.4,1.3,11,1.6,16.6,0.9c1.4-0.2,2.1-0.8,2.2-2.2
			c0.3-4.4-0.9-8.5-2.8-12.4c-0.3-0.5-1.4-1.1-1.7-0.9c-0.6,0.4-1.3,1.2-1.4,1.9c-0.1,0.7,0.4,1.5,0.7,2.3c0.8,2.6,1.6,5.1,2.5,7.7
			c-0.2,0.2-0.4,0.5-0.5,0.7c-4.2-0.4-8.6-0.2-12.7-1.2c-16.7-3.7-33.4-7.7-50.1-11.6c-2.2-0.5-2.8-1.4-2.7-3.6
			c0.3-7.6,0.3-15.2,0.4-22.9c0.1-6.6-1-13.1-3.3-19.2c0.2-0.2,0.2-0.3,0.2-0.3c0.7-0.3,1.4-0.6,2-0.9c6.6-3,12.5-6.9,16-13.5
			c3.3-6.1,5.2-12.8,5.8-19.7c0.5-5.9,0.6-11.8,0.9-17.9c1-0.4,2.2-0.8,3.5-1.3c4.8-2,8.5-5.1,9.7-10.4c0.3-1.2,0.6-2.5-1-2.9
			c-1.6-0.4-2,0.7-2.3,2c-0.9,3.8-3.3,6.4-6.9,7.9c-1.4,0.6-2.7,1.2-4.2,1.5c-2,0.5-2.5,1.5-2.5,3.5c0,5.2-0.1,10.4-0.3,15.5
			c-0.1,2.7-0.7,5.3-1.2,8.6c-0.7-1.1-1-1.7-1.3-2.3c-3.2-5.1-7.7-8.4-13.7-9.1c-10.5-1.3-19.1,2.7-26.3,10
			c-3.6,3.7-5.8,8.2-5.6,13.3C861,389.4,862.1,392.7,862.8,396.2z M916.1,132.7c-4.9,2.2-9,4.1-13.2,5.9c-3.7,1.6-7.4,3-11,4.7
			c-2.2,1-3.5,2.8-3.5,5.4c0,5.3,0,10.5-0.3,15.8c-0.3,4.4-1,8.8-1.5,13.2c-0.2,1.3-0.7,1.9-2.1,2c-2.5,0.1-5,0.5-7.5,0.7
			c-1.3,0.1-2.7,0-2.7,1.9c0,1.9,1.5,1.8,2.8,1.6c3.3-0.3,6.6-0.5,9.9-1c0.8-0.1,1.9-1,2.2-1.7c0.8-2.2,1.5-4.6,1.6-6.9
			c0.4-7.7,0.7-15.4,0.9-23.1c0-2.4,0.7-4,3-5c7.6-3.3,15.1-6.8,22.7-10.2c0.6-0.3,1.7,0,2.2,0.5c5.5,5.4,11,10.8,16.3,16.4
			c1.1,1.1,1.8,2.9,2.1,4.4c1.5,7.5,2.7,15,4.1,22.5c1.2,6.3,4.4,11.1,10.3,13.9c1.2,0.6,2.3,0.5,2.7-0.8c0.2-0.6-0.5-1.8-1.1-2.2
			c-4.7-2.5-7.3-6.5-8.4-11.5c-1.4-6.4-2.8-12.7-3.5-19.2c-0.6-5.5-2.1-10.1-6.9-13.4c-2-1.4-3.7-3.4-5.5-5.1
			c-4.9-4.7-9.8-9.5-14.6-14.3c-2.9-2.8-5.6-5.8-8.5-8.9c1.1-0.7,1.8-1.1,2.5-1.6c3.8-2.8,7.6-5.4,11.2-8.3c2.1-1.6,1.8-3-0.7-4
			c-3.4-1.3-6.8-2.5-10.2-3.6c-3.9-1.3-7.8-2.5-11.7-3.8c0.1-0.3,0.2-0.4,0.2-0.4c0.6-0.2,1.3-0.4,1.9-0.6
			c6.1-1.9,10.5-5.7,11.5-12.2c1.1-6.8-0.9-12.8-6.6-17.1c-4.7-3.5-10.2-3.7-15.7-2.8c-5.5,0.9-10.7,2.7-14.6,6.8
			c-6.4,6.8-4.5,17.8,4.1,22.8c3.1,1.8,6.5,2.8,10.1,4.3c-3.5,2.7-7,5.6-10.6,8.2c-4.6,3.4-9.4,6.6-14.1,9.9c-1.4,1-1.3,2.2,0.2,2.9
			c4.6,1.9,9.1,4.1,13.8,5.6c2.4,0.8,5.2,0.6,7.8,0.4c2-0.2,2.3-1.8,1-3.4c-2.3-2.7-2.4-3.4-0.6-6.7c0.7-1.2,0.9-2.4-0.4-3
			c-0.6-0.2-1.9,0.5-2.4,1.1c-2.1,2.7-2.2,5.7-0.6,8.9c-5.4-0.2-9.5-2.8-14-4.9c7.7-5.5,15.2-10.9,22.7-16.3
			c1.5,6.5,5.7,11.5,9.9,16.9c-1.2,0.7-2.2,1.2-3.4,1.9c-1-3.7-2.6-6.7-5.7-8.5c-0.7-0.4-2.2-0.4-2.6,0.1c-1,1-0.4,2,0.7,2.7
			c2.8,2,4.1,4.7,4.3,8.1c0.1,2.4,1.1,2.9,3.3,1.7c1.9-1.1,3.8-2.2,4.9-2.8C907.1,124.7,911.4,128.6,916.1,132.7z M120.8,619.9
			c-4-1.5-7.3-4.1-10.2-7.2c-6.7-7.2-10.5-16.1-13.6-25.2c-0.3-0.9-1-2.2-1.7-2.3c-3.5-0.4-6-2.4-8.3-4.7c-0.5-0.5-1.7-0.2-2.5-0.3
			c0,0.8-0.3,1.9,0,2.5c1.9,2.6,4.3,4.6,7.4,5.3c1.4,0.3,2,1.1,2.4,2.4c2.4,7,5.4,13.6,9.7,19.6c7.1,10,16.3,16.2,29,16.1
			c1.7,0,1.8,0.9,1.7,2.1c-0.1,5.1-0.3,10.2-0.3,15.3c-0.1,7.6,0,15.3-0.1,22.9c0,1.1-0.2,2.4-0.7,3.4c-4.7,9.9-6.4,20.4-4.5,31.2
			c1.2,6.9,3.2,13.7,4.8,20.5c1.3,5.6,0.4,7.4-5.1,9.2c-0.3,0.1-0.7,0.2-0.8,0.4c-0.3,0.6-0.6,1.4-0.5,2c0.1,0.4,0.9,1,1.5,1
			c5.4,0,10.3-5.9,9.1-11.2c-0.3-1.4-0.7-2.7-1.1-4.1c-2.8-8.2-4.6-16.7-4.9-25.4c-0.3-7.7,1.2-15,4.6-21.9c0.2-0.5,1-1.1,1.4-1.1
			c5.7,0.6,11.5,1.3,16.8,3.7c4,1.9,4.9,3.5,4,7.7c-1.1,4.8-2.6,9.4-3.8,14.1c-0.8,3.2-1.4,6.5-1.9,9.8c-0.1,0.7,0.5,2.1,1.1,2.3
			c3.7,1.2,7.4,2.1,11.1,3c0.5,0.1,1.4-0.3,1.6-0.7c0.3-0.4,0.3-1.4,0-1.8c-0.5-0.6-1.3-1-2-1.2c-2.7-0.9-5.5-1.7-8.5-2.6
			c0.4-2.2,0.8-4.4,1.3-6.5c1.6-5.9,3.4-11.8,4.9-17.7c1.1-4.3-0.2-7-4.4-8.4c-6-2-12.2-3.5-18.4-4.9c-1.7-0.4-2.3-0.8-2.3-2.6
			c0.1-6.8,0-13.6,0-20.4c0-5.6,0.1-11.3,0-16.9c0-1.5,0.5-2,1.9-2.4c3.3-0.9,6.8-1.7,9.9-3.2c12.6-6.1,21.2-16.1,26.6-29
			c0.4-1,1.4-2,2.4-2.6c3.3-1.8,5.7-4.3,6.8-7.9c0.3-1.1,0.6-2.4-1-2.9c-1.7-0.6-2,0.7-2.3,1.9c-1,3.1-3.1,5.2-6.1,6.2
			c-1.3,0.4-1.9,1.1-2.3,2.3c-4.2,11.5-11.4,20.6-22,27c-0.6,0.4-1.2,0.7-2.1,1.1c1.2-1.3,2.2-2.3,3.1-3.4c3-3.3,5.2-6.9,5.8-11.5
			c1-8.9-7.1-17.3-16.1-17.8c-7.7-0.4-14.1,2.5-19.5,7.6c-4.3,4.2-7.1,9.3-6.7,15.6C116.4,612.7,118.3,616.4,120.8,619.9z
			 M613.9,705.1c3.1,1,6.1,2,9.2,2.9c1.2,0.3,2.5,0.4,2.7-1.3c0.2-1.6-0.9-1.9-2.2-2.1c-3.2-0.4-6-1.5-8.4-3.6
			c-1.8-1.5-2.6-1.3-3.7,0.7c-2.3,4-4.7,8-7.3,12.3c-3.9-6.1-7.2-11.7-10.9-17c-4.3-6.2-7.1-12.8-7.6-20.3c-0.7-9.3,0.6-18.2,6.3-26
			c0.8-1.1,1.5-1.5,2.9-0.9c4.1,1.6,8.6,2.4,12.8,1.2c3.3-0.9,6.5-1.2,9.8-1.3c6.9-0.3,12-3.4,14.6-10c2.2-5.7,4.4-11.5,6.4-17.2
			c0.5-1.4,1.2-2,2.6-2.3c4-0.9,6.9-3.2,8.9-6.8c0.5-1,1.2-2.2-0.2-2.9c-1.2-0.6-2.2-0.1-2.8,1.2c-1.4,2.9-3.8,4.8-6.8,5.1
			c-2.8,0.3-3.8,1.7-4.6,3.9c-0.3,1-0.8,1.9-1.2,2.9c-2.1,5.5-4,11.1-6.3,16.6c-2,4.6-6.4,6.6-11.5,5.9c0-0.1-0.1-0.2,0-0.2
			c0.4-0.6,0.8-1.2,1.2-1.9c2.8-4.5,4-9.2,2.6-14.4c-3.1-11.7-16.5-20.7-28.4-19c-7.5,1-12.6,5.2-15.3,12.2
			c-0.8,2.1-0.8,4.4-1.2,6.6c-4.9-3.4-8-8.1-8.3-14.3c-0.2-4.5-0.1-9-0.1-13.5c0-1.4-0.2-2.7-1.9-2.7c-3.5,0-5.8-2-7.9-4.3
			c-1-1-1.9-1.8-3.2-0.7c-1.2,1.1-0.2,2,0.5,2.8c2.3,2.9,5.5,4.6,9.1,5.7c0,3.6-0.2,7.1,0,10.5c0.5,6.3,1.7,12.3,6.5,17
			c4.5,4.3,8.9,8.8,13.5,13.1c1.8,1.7,3.9,3.1,5.8,4.5c-8.4,12.2-10,25.4-5.3,39c2.2,6.4,3.5,12.6,3.5,19.3
			c0.1,7.3,1.2,14.5,4.2,21.2c1,2.3,2,2.5,3.7,0.6c2.5-2.6,5.1-5.3,7.7-8.1c0.6,0.9,1,1.7,1.6,2.3c2.5,3,5,6,7.5,9
			c1,1.2,2.2,1.4,3.3,0c3.9-4.9,7.7-9.7,11.5-14.6c0.9-1.1,1.4-2.5,2-3.6c1.9,0.8,3.6,1.7,5.3,2.2c2.2,0.7,4.5,0.8,6.3-0.9
			c0.5-0.5,0.4-1.7,0.3-2.5c0-0.2-1.5-0.5-2-0.3c-1.8,0.9-3.5,0.8-5.1,0c-1.5-0.7-2.9-1.5-4.2-2.4c-1.4-1-2.3-0.5-3,0.8
			c-0.3,0.6-0.5,1.2-0.8,1.8c-2.9,6.3-7.3,11.4-12.4,16.7c-2.8-3.8-5.5-7.4-8.1-10.9C608.8,712.9,611.4,708.8,613.9,705.1z
			 M845.5,634.6c-4.1,0-7.6,0.1-11,0c-1.3,0-2.6-0.6-3.9-0.8c-8.8-1.8-15.1-6.9-19.2-14.7c-0.7-1.3-1.5-1.7-2.9-1.9
			c-3.7-0.5-7.4-1.2-8.9-5.5c-0.1-0.4-1.4-0.9-1.8-0.7c-0.6,0.3-1.4,1.3-1.3,1.7c0.3,1.2,0.8,2.6,1.6,3.5c2.3,2.6,5.6,3.5,8.8,4.4
			c0.7,0.2,1.5,0.6,1.9,1.2c6.2,11.2,16.3,15.9,28.5,16c6.7,0.1,13.4-1,20-2c2.4-0.4,3.6,0.1,5,1.9c7,9.1,10.6,19.6,12.6,30.7
			c0.5,2.5,1.1,5.2,0.7,7.7c-1.5,9.4-4.2,18.6-8,27.4c-4.4,10.3-9.2,20.5-13.8,30.7c-0.2,0.5-1,0.9-1.7,1.1
			c-2.7,0.8-5.5,1.6-8.3,2.4c-1.2,0.4-2.2,1.1-1.7,2.6c0.6,1.8,1.9,0.9,2.9,0.6c3.1-0.8,6.1-1.6,9.2-2.5c0.8-0.3,1.8-0.9,2.2-1.7
			c2.8-6.1,5.4-12.3,8.3-18.4c4.6-9.6,8.8-19.3,11.8-29.6c0.1,2.5,0.2,5-0.2,7.4c-1.2,8-2.9,16-3.9,24.1c-0.6,5.5-0.3,11.2-0.2,16.8
			c0,0.7,1,1.9,1.7,2.1c3.2,1,6.5,1.8,9.8,2.6c1.1,0.3,2.3,0.7,2.7-0.9c0.4-1.4-0.4-2.1-1.6-2.4c-2.6-0.7-5.1-1.7-7.7-2.2
			c-1.5-0.3-1.9-0.9-2-2.3c-0.4-6.5,0.5-12.8,1.6-19.2c1.3-7.3,2.8-14.6,3.2-21.9c0.3-7.2-0.3-14.5-1.3-21.7
			c-1.7-12.9-5.6-25.1-13.7-35.6c-0.2-0.3-0.3-0.6-0.4-0.9c0.3-0.2,0.4-0.3,0.5-0.3c17.4-3.1,31-15.1,32.7-33.9
			c0.1-1.6,0.9-2.3,2.3-2.6c3.6-0.9,6.1-2.9,7.1-6.6c0.3-1.2,0.3-2.3-1-2.7c-1.4-0.5-1.9,0.4-2.3,1.6c-0.4,1.1-1,2.5-2,3.1
			c-1.5,1-3.4,1.5-5.1,2c-1.5,0.4-2.2,1.2-2.2,2.8c-0.1,4.6-1.1,9.1-3,13.3c-4.7,10.2-12.9,16-24,19.1c0.6-0.8,0.9-1.1,1.1-1.4
			c2-3.3,4.6-6.3,5.8-9.8c4.4-12.7-4.3-23.3-17-21.9c-8.8,1-18.3,9.2-20.7,18.2c-2,7.5,0.2,13.1,6.7,17.4
			C843.9,633.4,844.5,633.8,845.5,634.6z M136.5,450.6c-13.4-10.9-25-22.9-32.5-38.4c10-4.5,19.6-8.9,29.4-13.3
			c0.1,0.5,0.2,0.9,0.3,1.4c0.7,7.1,1.3,14.3,2,21.4c0.1,1,0.8,2,1.2,3c0.9-0.4,2-0.7,2.8-1.4c3.6-3.1,6.9-6.4,11.9-7.5
			c0.6-0.1,0.9-1.5,1.4-2.3c-0.7-0.3-1.6-1-2.2-0.8c-2.8,1.1-5.5,2.4-8.2,3.8c-1.2,0.6-2.2,1.6-3.6,2.7c-0.7-7.6-1.4-14.8-1.9-22
			c-0.2-3.2-1-3.7-3.8-2.4c-6.5,3.1-13.1,6.3-19.6,9.3c-3.7,1.7-7.4,3.2-11.1,4.7c-7.2-11.4-7.7-32.8-1.1-45.7
			c0.6,0.2,1.2,0.5,1.8,0.6c4,0.7,8,1.9,11.9,2c7.7,0.1,13.4-4,15.8-10.7c2.2-5.9,0.8-11.4-2.4-16.5c-0.7-1.1-0.8-1.9,0.1-2.7
			c3.1-2.8,6.4-5.5,9.5-8.3c0.8-0.7,1.7-1.7,2-2.7c0.8-3.2,1.5-6.3,4-8.7c0.4-0.4,0.1-1.7,0.1-2.6c-0.8,0.1-1.9-0.1-2.5,0.3
			c-2.8,2.3-3.8,5.5-4.7,8.9c-0.2,0.7-0.4,1.5-0.9,1.9c-3.7,3.1-7.5,6.1-11.4,9.2c-3.4-3.1-7.6-5.8-12.5-7.3
			c-8.2-2.4-16.3-0.4-20.7,5.6c-1.7,2.3-2.6,5.1-3.8,7.6c-1.1-1.3-2.4-3-3.8-4.5c-6.9-7.4-15.6-11.8-25-15.2
			c-5.5-2-11.1-3.8-17.1-2.6c-0.5,0.1-1.3-0.5-1.7-1c-2.8-3.2-6.3-5.1-10.2-6.4c-1.2-0.4-2.3-0.4-2.7,1c-0.4,1.4,0.5,1.9,1.7,2.3
			c4,1.2,7.4,3.4,9.8,6.9c0.9,1.3,1.8,1.2,3.3,0.9c2.1-0.4,4.5-1,6.5-0.5c10.7,2.3,20.7,6.3,29.2,13.3c4.7,3.9,8.6,8.4,10.4,14.3
			c1.2,4.1,3.3,7.6,6.6,10.3c3.4,2.8,3.4,2.8,2,7.1c-3.5,10.7-4.8,21.5-1.8,32.5c3.4,12.4,9.7,23.3,17.5,33.4
			c6.8,8.7,15.3,15.7,23.4,23c1.3,1.2,2.5,1,3.1-0.6c1.7-4.7,5-7.8,9.6-9.6c1.3-0.5,1.9-1.5,1-2.6c-0.4-0.5-1.7-0.7-2.4-0.5
			C142.5,443.1,139,446.2,136.5,450.6z"/>
		<path d="M516.2,327.9c-1.9-1.3-4-2.4-5.6-3.9c-5.6-5.7-6.1-12.5-3.7-19.8c4-11.9,16.3-18.2,27.6-14.1c11,3.9,15,13.1,10.3,23.8
			c-3.7,8.4-9.9,13.7-19.2,14.8c-0.2,0-0.4,0.1-0.7,0.1c-0.1,0-0.3,0.1-0.6,0.2c6.5,9.8,13,19.5,19.7,29.5c0.9-2.1,1.5-4,2.3-5.7
			c2.2-4.8,4.4-9.5,6.7-14.2c0.4-0.7,1.5-1.4,2.3-1.5c4.5-0.3,8-5.9,6.3-10.1c-0.3-0.7,0.4-1.7,0.6-2.6c0.8,0.3,2,0.4,2.3,1
			c0.7,1.3,1.2,2.8,1.2,4.2c-0.1,4.7-3.9,9.2-8.4,10.7c-0.8,0.3-1.8,1-2.1,1.8c-2.9,6.8-5.7,13.6-8.6,20.4c-0.3,0.7-1,1.8-1.5,1.8
			c-0.8,0-1.8-0.7-2.2-1.4c-4.5-6.6-8.9-13.3-13.4-19.9c-2.9-4.3-5.9-8.7-8.9-13.1c-6.3,8.9-11.5,17.9-11.5,29
			c0,1.8,0.5,2.4,2.3,2.2c5.6-0.7,11.1-1.3,16.7-2c0-0.3,0.1-0.6,0.1-0.8c-0.6-0.5-1.2-0.9-1.8-1.4c-3.7-3-6.4-6.5-6.2-11.7
			c0.1-1.3,0.3-2.5,1.8-2.5c1.7,0,1.6,1.2,1.6,2.5c-0.1,4,2.1,6.8,5.1,9.1c1.3,1,2.8,1.7,4.1,2.7c0.7,0.5,1.6,1.4,1.5,2
			c-0.1,0.7-1.1,1.5-1.9,1.8c-6.6,2.3-13.4,3.5-20.4,3.7c-0.7,0-1.5,0-2.6,0c0.5,6.5,2.4,12.4,4.5,17.9c8.1-4.2,16-8.3,23.9-12.4
			c0.8-0.4,2.1-0.6,2.8-0.3c0.5,0.3,0.8,1.7,0.7,2.5c-1.3,8.6-2.7,17.1-4,25.6c-0.3,1.8-0.4,3.6-0.7,5.6c2-1,3.8-1.9,5.6-2.6
			c3.2-1.2,6.5-1.7,9.7,0c0.8,0.4,1.6,1.4,1.7,2.3c0.2,1.4-0.9,2.2-2.1,1.4c-3.8-2.4-7.3-1.2-10.7,0.7c-1.5,0.8-2.8,2-4.2,2.8
			c-0.8,0.5-1.9,0.9-2.7,0.7c-0.5-0.2-0.9-1.6-0.8-2.4c1.1-7.6,2.3-15.2,3.5-22.8c0.5-3.1,0.9-6.1,1.5-9.8c-1.6,0.7-2.6,1.2-3.6,1.7
			c-5,2.6-9.9,5.4-14.9,7.9c-4.4,2.2-6.9,6.1-9.3,10.1c-1.4,2.3-2.7,4.6-4.3,6.7c-1.9,2.5-2.3,5.2-2.1,8.1c0.4,7.9,0.7,15.8,1,23.7
			c0.2,3.5-0.8,6.5-3.9,8.4c-3.5,2.2-7.2,4.3-10.9,6.2c-0.6,0.3-2.1-0.2-2.4-0.8c-0.6-1.2,0.3-1.8,1.4-2.4c3.3-1.7,6.4-3.6,9.5-5.5
			c1.7-1,2.4-2.8,2.3-4.8c-0.2-7.8-0.2-15.5-0.5-23.3c-0.2-3.8,0.2-7.3,2.4-10.6c2.8-4.2,5.3-8.5,7.9-12.9c0.4-0.6,0.5-1.6,0.3-2.4
			c-1.6-6.1-3.2-12.3-4.9-18.4c-0.2-0.6-1-1.2-1.7-1.4c-4.6-1.2-9.2-2-13.7-3.4c-3.6-1.1-3.6-2.1-1-4.9c6.7-7.2,13.2-14.6,19.9-21.8
			C511.6,332,514,330,516.2,327.9z M528,292.4c-10.8-0.1-18,8.7-18.8,17.7c-0.8,8.9,5.6,15.8,14.1,15.3c8.5-0.5,14.9-4.8,18.5-12.5
			c1.2-2.6,1.7-5.9,1.4-8.8C542.3,297,536,292.4,528,292.4z M505.7,361.3c-0.4-9.2,2.1-17.2,6.6-24.6c-0.2-0.1-0.4-0.2-0.6-0.3
			c-6.3,7.1-12.6,14.3-19.4,21.9C497,359.4,501.1,360.3,505.7,361.3z"/>
		<path d="M660.4,178.6c-5.4-11.9-11.3-23.2-25.6-26.1c-6.4-1.3-12.8-2.4-19.2-3.4c-1.6-0.3-2.3-0.9-2.6-2.4
			c-0.8-3.9-1.8-7.8-2.6-11.7c-0.1-0.6,0.7-1.8,0.9-1.8c0.9,0.2,2.2,0.5,2.4,1.1c0.9,2.7,1.7,5.5,2.1,8.4c0.3,2.2,0.9,3.1,3.4,3.4
			c5.6,0.6,11.1,1.8,16.6,2.8c8.5,1.7,14.6,6.9,19.2,13.9c1.5,2.2,3,4.4,4.7,6.8c0.3-0.6,0.4-1,0.7-1.4c1.4-2.2,2.4-4.9,4.3-6.6
			c2.5-2.2,2.9-4.7,3.2-7.6c0.5-6.1,0-12-3.6-17.2c-3.5-5.2-4.1-11.3-5.6-17.2c-0.1-0.5,0.7-1.8,1-1.7c0.8,0.1,2.1,0.5,2.3,1
			c0.7,1.9,0.9,3.9,1.4,5.8c0.6,2.2,1.2,4.4,2,6.5c1.9,5,4.3,9.8,5.6,14.9c0.9,3.4,0.2,7.2,0.2,10.4c4.2-0.3,8.3-0.9,12.3-0.7
			c13,0.7,22.6,16.4,17.1,27.7c-2.8,5.9-8.1,8.6-14.2,9.5c-9.7,1.5-17.6-1.9-23.6-9.6c-0.4-0.5-1.3-1.1-1.9-1.1
			c-13.1,1.1-25.7,3.9-36.9,11.4c-6.3,4.3-11.8,9.4-16.4,15.5c-0.2,0.2-0.3,0.4-0.7,1.2c4.3-1.8,8.1-3.5,11.9-5
			c7.2-2.9,14.4-5.8,21.6-8.6c2.7-1.1,3.5-0.4,3.3,2.6c-0.1,2-0.4,4-0.6,6.3c1.1-0.1,2.2-0.1,3.2-0.2c2.8-0.4,5.6-0.8,8.4-1.1
			c2.5-0.3,3.2,0.6,2.4,2.9c-2,6.1-4,12.2-6,18.4c-0.5,1.5-0.8,3-1.2,4.7c3.6,0.7,6.9,0.4,9.9-1.6c0.5-0.4,1.2-0.8,1.7-0.8
			c0.6,0,1.4,0.5,1.7,1c0.2,0.4-0.1,1.3-0.5,1.7c-3,3.2-11.8,4.7-15.4,2.5c-0.6-0.4-1.1-1.8-0.9-2.5c1.4-5.4,3-10.7,4.6-16
			c0.6-2.1,1.4-4.2,2.2-6.6c-3.6,0.4-6.9,0.8-10.1,1.2c-0.4,0.1-0.9,0.7-1,1.2c-1.8,8.5-3.6,16.9-5.4,25.4c-0.1,0.5,0,1,0,1.5
			c3.6,1,7,0.9,10.3-0.6c1.2-0.5,2.3-0.8,3,0.6c0.8,1.6-0.6,2.1-1.6,2.6c-3.6,1.6-7.4,1.6-11.1,1.1c-4.6-0.6-4.8-0.9-3.9-5.4
			c1.6-7.8,3.3-15.6,5-23.4c0.2-0.7,0.2-1.4,0.4-2.5c-4.5,0.5-8.8,0.8-13.1,1.5c-7.6,1.4-15,3.1-22.6,4.6c-0.7,0.1-2-0.2-2.3-0.7
			c-0.3-0.6-0.2-1.9,0.3-2.5c10.6-16.5,25.3-27.4,44.7-31.4C650.6,180.2,655.3,179.5,660.4,178.6z M681.4,190
			c8.1,0,13.1-2.5,15.7-7.4c2.7-5,2.1-10-0.7-14.8c-5.2-8.9-17.8-11.8-26.5-6.1c-8.3,5.5-9.2,15.5-1.9,22.3
			C672.2,188,677.3,190,681.4,190z M639.9,200.5c-5.9,2.4-11.9,4.8-17.9,7.1c4.4-0.1,8.8-0.6,13.1-1.1c4.9-0.6,4.9-0.6,5.2-5.5
			C640.2,201,640.1,200.9,639.9,200.5z"/>
		<path d="M413.7,145.3c6.7,8.3,11.1,18,13.7,28.6c0.7,2.7,0.1,3.4-2.6,3.4c-7.5,0.1-14.6-2.2-21.6-4.6c-1.7-0.6-3.3-1.1-5.3-1.8
			c0.1,2.7,0.2,5,0.4,7.3c0.2,1.5,0,2.7-1.6,2.8c-1.7,0.2-1.7-1.2-1.8-2.4c-0.2-3.3-0.5-6.6-0.7-9.9c-0.1-1.6,0.9-2.3,2.7-1.8
			c5,1.6,9.9,3.4,15,4.8c3.8,1,7.8,1.6,11.9,2.4c-4.3-19.4-17.9-38.6-36.9-40.8c0.8,3.9,1.6,7.7,2.5,11.5c1.4,6.2,3,12.3,4.3,18.5
			c0.5,2.4-0.5,3-2.9,2.4c-2-0.5-4-0.9-6.1-1.4c-0.9-0.2-2-0.4-2.7-0.9c-0.6-0.4-0.8-1.4-1.1-2.1c0.8-0.3,1.6-1.1,2.3-1
			c2.2,0.3,4.4,1,7.2,1.7c-1.2-4.6-2.2-8.6-3.2-12.5c-1.2-5.2-2.4-10.4-3.6-15.5c-0.2-0.7-0.2-1.5-0.2-2.2c-0.1-1.6,0.6-2.3,2.3-2.1
			c6.7,0.6,12.7,2.9,18.1,6.6c2.5,1.8,4.9,3.8,7.4,5.9c3.6-3.9,5.5-8.5,6.2-13.7c1.4-10.2-0.7-19.6-7.3-27.7
			c-0.1-0.2-0.3-0.3-0.4-0.5c-2.8-3.2-2.8-3-6.6-1.4c-8.3,3.4-16.7,6.5-25,9.8c-2.7,1.1-5.1,0.7-7.2-1.1c-4.7-3.9-9.4-7.9-13.9-12
			c-1-0.9-1.7-1.2-3-1.2c-6.1,0.2-10.5-2.7-13.5-7.8c-0.3-0.6,0.3-1.7,0.5-2.6c0.8,0.3,2,0.3,2.3,0.9c3,4.4,6.8,6.9,12.4,5.9
			c0.8-0.1,2,0.7,2.7,1.3c3.7,3.4,7.1,7.1,10.9,10.3c3.4,2.9,7.4,3.6,11.8,1.7c6.7-2.8,13.4-5.5,20.1-8.2c0.2-0.1,0.5-0.3,0.6-0.4
			c-3.9-0.4-7.7-0.7-11.5-1.4c-4.3-0.8-8.3-2.7-11.9-5.3c-10.9-7.8-8.6-20.6-0.5-27.1c9.8-7.8,25.6-7,35.2,1.7
			c3.7,3.4,6.5,7.3,7.1,12.4c0.8,6.7-1.7,11.8-7.1,15.7c-0.5,0.4-1.1,0.7-1.5,1.2c6.6-1.1,12.9-3.1,18.9-6.1
			c7.4-3.6,13.8-8.6,19.1-15c0.9-1,1.9-1.2,3.1-1.6c2.2-0.6,4.1-2.1,6.1-3.2c0.5-0.3,0.8-1.2,1.4-1.4c0.8-0.3,1.7-0.3,2.6-0.4
			c0,0.9,0.3,2-0.1,2.5c-2.3,3.1-5.3,5.1-9.1,6c-0.7,0.2-1.5,0.5-2,1.1c-10,11.6-22.9,18-37.6,21.3c-0.9,0.2-1.7,0.4-2.6,0.6
			C423.1,112.2,425.3,128.2,413.7,145.3z M399.5,92c1.4-0.1,3.2-0.2,4.9-0.5c11.5-1.9,16.1-12.7,9.5-22.2
			c-8-11.5-25.5-11.7-33.9-4.8c-5.6,4.6-8.5,14-0.6,20.6C385.1,89.9,391.9,91.6,399.5,92z"/>
		<path d="M293.1,611.1c-3.5-3.1-6.5-6.3-8.9-10.3c-5.3-9.2-0.5-19.2,7.7-23.3c14.3-7.2,34.2,5.6,35.1,19.9c0.2,4-0.6,7.6-2.9,10.9
			c-1.2,1.7-2.5,3.4-3.7,4.9c7.1-2.6,12.5-7.7,16.9-13.9c4.7-6.6,7.8-13.9,10.3-21.6c0.5-1.7,1.3-2.3,3.1-2.7
			c2.3-0.6,4.3-2.3,6.4-3.5c0.5-0.3,0.7-1.2,1.2-1.3c0.8-0.2,1.8-0.2,2.5,0.1c0.2,0.1,0.3,1.6,0,2c-2.1,2.8-4.8,4.9-8.2,5.8
			c-1.5,0.4-2,1.1-2.4,2.4c-3.5,9.8-7.9,19.1-15.2,26.8c-5.3,5.6-11.8,9-19.6,10.6c0.7,1.3,1.6,2.3,1.9,3.5c1,3.5,2.2,7.1,2.6,10.7
			c1.2,11.3-0.1,22.5-4.1,33.2c-0.6,1.6-0.2,2.3,0.9,3.4c7.2,7.2,12.6,15.5,15.1,25.5c0.2,0.8,0,2.1-0.5,2.7
			c-0.3,0.4-1.8,0.1-2.5-0.3c-8.6-4.9-17.8-8.5-27.5-11.4c-0.7,3.3,0,6.1,1.6,8.8c0.3,0.5,0.9,0.9,1,1.5c0.1,0.8-0.2,1.6-0.3,2.4
			c-0.8-0.2-2.1,0-2.5-0.6c-3.2-4.1-4.3-8.7-3.1-13.8c0.5-2.1,1.5-2.6,3.6-1.8c8.5,3.1,17.1,6.2,25.5,9.3c-0.3-0.8-0.7-2.1-1.3-3.3
			c-4.8-10.7-12.8-18.8-22.2-25.5c-3.7-2.6-7.8-4.8-11.6-7.3c-2.2-1.5-4.6-1.6-7-1.1c-8.8,1.6-17.2,4.2-25,8.7
			c-0.8,0.4-2,0.6-2.8,0.3c-0.5-0.2-0.6-1.7-0.5-2.5c0.5-3.8-1.6-6.6-3.4-9.6c-0.3-0.5-0.2-2,0.1-2.2c0.6-0.3,1.6-0.1,2.4,0.1
			c0.3,0.1,0.6,0.6,0.8,1c1.4,2.7,2.7,5.5,4.2,8.5c1.5-0.7,3.4-1.6,5.3-2.4c7.3-3.1,15-4.9,22.9-5.5c0.9-0.1,2.1,0.3,2.9,0.8
			c6.5,4.2,12.9,8.4,19.3,12.7c0.4,0.2,0.7,0.5,1.6,1.2c1.2-4.8,2.5-9.1,3.2-13.6c1.2-7.3,1.5-14.6,0.1-21.9
			c-0.6-3.1-1.9-6.2-3.1-9.1c-0.4-0.9-1.8-1.9-2.8-1.9c-15.6-0.6-27.6-7.9-37.5-19.5c-4.1-4.8-7.2-10.3-9.6-16.2
			c-0.4-0.9-1.3-1.8-2.1-2.2c-3.2-1.6-5.7-4-7.1-7.3c-0.3-0.8-0.6-1.8-0.4-2.6c0.1-0.6,0.9-1.4,1.5-1.5c0.4-0.1,1.4,0.6,1.5,1.2
			c1.2,4.1,3.8,6.5,7.7,7.9c0.7,0.2,1.3,1.3,1.6,2.1c4.4,11.8,11.8,21.1,22.4,27.9C289.7,609.3,291.4,610.2,293.1,611.1z M301,578.8
			c-11.8,0-19.2,11.2-13.5,20.8c4.7,7.9,11.9,12.3,21.1,13.4c10.9,1.2,16.3-9.7,14.7-17C321.2,586.8,310.9,578.8,301,578.8z"/>
		<path d="M282.9,401.7c0.7,7.5,1.5,14.4,2,21.4c0.7,8.9,1.1,17.9,1.6,26.8c0.1,2.1-0.6,2.9-2.8,3.3c-2.9,0.4-5.7,1.6-8.6,2.2
			c-0.9,0.2-2.5,0-2.8-0.6c-0.8-1.4,0.3-2.3,1.7-2.7c2.9-0.9,5.8-1.7,9.1-2.7c0-3.4,0.3-7-0.1-10.6c-0.7-8.6-1.7-17.2-2.6-25.8
			c-1.2-11.3-0.6-22.5,1.4-33.6c1.5-8.7,3.7-17.2,8.2-24.9c1.5-2.6,3.4-5,5.1-7.6c-17.8-12.1-30-27.8-32.4-50
			c-3.2-0.6-4.2-3.1-4.5-5.8c-0.2-2.3,1-3.9,3.2-4.8c-0.3-2.2-0.6-4.4-0.9-6.6c-0.2-1.1-0.1-2.1,1.3-2.4c1.4-0.2,2,0.7,2.1,1.9
			c0.7,6.2,1.4,12.5,2.2,18.7c1.2,9.2,4.3,17.7,9.6,25.2c2.6,3.8,5.7,7.3,8.8,10.6c-0.3-2.4-0.8-4.8-0.9-7.2
			c-0.7-10.6,8-18.4,19.5-15.8c9.9,2.3,18.7,11.7,20,21.8c0.5,4.3-0.8,8-3.9,11.1c-0.6,0.6-1.3,1.2-2.3,2.1c5.6-1,10-3.1,13.8-6.5
			c7.2-6.6,11.2-14.9,12.6-24.6c0.4-3.1,1.1-6.3,1.5-9.4c0.2-1.3,0.6-2.4,2.1-2.3c1.8,0.1,1.4,1.5,1.3,2.7c-0.3,2-0.6,3.9-0.9,5.9
			c3.4,2.6,4,5.1,2,8.5c-0.5,0.8-1.4,1.9-2.2,1.9c-1.8,0.2-2.2,1.2-2.7,2.6c-2.5,6.6-6,12.6-11.3,17.3c-5.7,5-12.4,7.4-19.9,7.6
			c-4.5,0.1-9-0.6-13.5-0.9c-0.7,0-1.7,0.3-2.1,0.9c-5.6,6.3-8.8,13.8-10.8,21.9c-0.8,3.3-1.9,6.7-1.9,10c-0.1,4.8,0.3,9.7,1.1,14.5
			c2.3,14.3,6.3,28.1,12.4,41.3c2.8,5.9,5.8,11.7,11.8,15.2c1.7,1,3.6,1.8,5.3,2.8c0.6,0.4,0.9,1.4,1.3,2.1
			c-0.9,0.3-1.9,1.1-2.6,0.9c-6.2-2.3-11.3-5.7-14.8-11.7c-7.5-13.1-12-27.3-15.2-41.9c-0.2-0.9-0.4-1.7-0.6-2.6
			C283.7,402.1,283.6,402,282.9,401.7z M299.2,313.8c-6.6,0-11.5,4-12.4,10.3c-1.6,10.2,8.4,21.8,18.7,22c8.4,0.1,15-7.1,13.8-15.1
			C318,322.3,308.1,313.8,299.2,313.8z"/>
		<path d="M188,170.1c0.6-2.1,1.1-3.8,1.5-5.6c0.2-0.9,0.1-1.9,0.5-2.6c0.4-0.7,1.4-1,2.1-1.5c0.4,0.7,1.2,1.5,1,2.1
			c-0.8,3.2-1.5,6.5-2.8,9.5c-1.2,2.7-2.3,2.7-4.6,0.9c-11.1-8.9-23.2-15.8-37-19.5c-16.1-4.4-32-3.3-47.5,2.7
			c-7.6,3-14.9,6.9-22.4,10.3c-2.3,1-4.9,1.5-7.4,2.3c-1.6,0.5-2.4-0.3-2.8-1.7c-0.3-1.1-0.6-2.3-0.6-3.5c0-2.8,0.1-5.6,0.4-8.4
			c0.1-0.7,1.2-1.3,1.9-1.9c0.5,0.7,1.4,1.4,1.4,2.1c0.1,2.1-0.2,4.1-0.3,6.2c0,1.2,0.1,2.3,0.2,4c2.6-0.9,5-1.5,7.1-2.5
			c4.8-2.3,9.5-5.1,14.3-7.4c10.4-4.9,21.4-7.7,33.3-8.2c-0.7-2.4-1.4-4.6-2.1-6.8c-2-6.3-4.2-12.5-5.8-18.8
			c-1.1-4.5-1.2-9.2-1.9-13.8c-0.1-0.7-0.5-1.8-1.1-2c-6.2-2.6-12.7-4.6-18.6-7.7c-9.2-4.9-17.9-4.2-26.5,1
			c-2.4,1.4-4.9,2.7-7.4,4.1c-1.8,1-2.9,1-4.2-1c-2.3-3.6-5.2-6.2-10-5.9c-0.6,0-1.3-0.9-1.9-1.3c0.5-0.7,1-1.8,1.6-1.9
			c4.3-0.8,7.6,1.1,10.6,3.9c0.9,0.8,1.7,1.8,2.6,2.9c3.1-1.7,6.2-3.5,9.3-5.1c6.6-3.5,13.4-5.6,21.1-2.2c-0.6-1.6-1.2-2.9-1.5-4.2
			C88.9,80,93.2,71.9,102,68c12.7-5.7,28.9-1.2,35.6,11.1c2.3,4.3,2.5,7.5,0.8,14.9c1.1-0.7,1.8-1.3,2.7-1.8
			c3.8-2.1,7.4-4.7,11.4-6.3c4.5-1.7,9.3-0.9,13.8,0.4c5.9,1.7,11.7,4,17.6,5.9c0.9,0.3,2.2,0.3,3-0.2c3.2-1.8,6.6-3.1,10.3-2.7
			c0.9,0.1,1.9,0.2,2.5,0.6c0.6,0.4,1.1,1.5,0.9,2.1c-0.1,0.5-1.4,1.1-2,1c-4.2-1-7.8,0.2-11,2.7c-1.4,1.1-2.5,1.1-4.2,0.2
			c-7.2-3.8-14.8-6.8-23.1-7.3c-4.3-0.3-8.3,0.6-12.1,2.8c-6.4,3.8-12.9,7.5-19.4,11.2c-1.9,1.1-4,1.9-6.2,2.5
			c-2,0.5-2.5,1.6-2.4,3.5c0.3,6.6,1.5,12.9,3.6,19.1c2,6,3.9,11.9,5.8,17.9c0.4,1.1,0.8,1.7,2.1,1.7c20.5,1,38.2,8.9,54.3,21.3
			C186.5,169,187,169.4,188,170.1z M113.4,69.2c-3.8-0.2-7.6,0.6-11.3,2.5c-7.9,4-13.3,16.1-1.6,23.9c7.1,4.7,15,6.3,23.3,4.7
			c11.9-2.3,15.9-13.3,8.4-22.8C127.6,71.5,121.2,69,113.4,69.2z"/>
		<path d="M862.8,396.2c-0.7-3.5-1.8-6.8-1.9-10.1c-0.2-5.2,2-9.7,5.6-13.3c7.2-7.3,15.8-11.3,26.3-10c6.1,0.8,10.6,4,13.7,9.1
			c0.3,0.6,0.7,1.1,1.3,2.3c0.5-3.3,1.1-5.9,1.2-8.6c0.3-5.2,0.4-10.4,0.3-15.5c0-2,0.6-3,2.5-3.5c1.4-0.3,2.8-0.9,4.2-1.5
			c3.6-1.5,6-4.1,6.9-7.9c0.3-1.3,0.8-2.4,2.3-2c1.6,0.4,1.3,1.7,1,2.9c-1.2,5.4-4.8,8.5-9.7,10.4c-1.2,0.5-2.5,1-3.5,1.3
			c-0.3,6.1-0.4,12-0.9,17.9c-0.6,6.9-2.5,13.6-5.8,19.7c-3.5,6.6-9.4,10.5-16,13.5c-0.7,0.3-1.4,0.6-2,0.9c-0.1,0-0.1,0.1-0.2,0.3
			c2.4,6.1,3.4,12.5,3.3,19.2c-0.1,7.6-0.2,15.2-0.4,22.9c-0.1,2.1,0.5,3.1,2.7,3.6c16.7,3.8,33.4,7.9,50.1,11.6
			c4.1,0.9,8.5,0.8,12.7,1.2c0.2-0.2,0.4-0.5,0.5-0.7c-0.8-2.6-1.6-5.1-2.5-7.7c-0.2-0.8-0.8-1.6-0.7-2.3c0.1-0.7,0.7-1.5,1.4-1.9
			c0.3-0.2,1.4,0.4,1.7,0.9c2,3.9,3.2,7.9,2.8,12.4c-0.1,1.5-0.9,2.1-2.2,2.2c-5.6,0.8-11.1,0.4-16.6-0.9
			c-16.2-3.8-32.4-7.6-48.5-11.6c-1.8-0.4-2.5,0-3.1,1.6c-2.3,6.1-4.6,12.2-7.3,18.1c-1.3,2.8-3.7,5.1-5.6,7.7
			c-1,1.2-2.1,1.2-3.6,0.6c-7.4-3.2-13.9-7.8-19.9-13.2c-0.3-0.2-0.5-0.5-1-0.8c-0.3,1-0.5,1.8-0.8,2.6c-0.9,2.6-2.6,4.7-5.2,5.7
			c-0.7,0.3-1.7-0.5-2.6-0.8c0.3-0.7,0.4-1.7,1-2.1c3.2-1.9,4.5-4.8,4.2-8.4c0-0.2-0.1-0.5,0-0.7c0.3-0.8,0.5-1.9,1.1-2.4
			c0.3-0.3,1.6,0.3,2.2,0.8c5.2,4.1,10.3,8.2,15.5,12.2c1.3,1,2.8,1.6,4.3,2.4c3.1,1.6,3.7,1.6,5.4-1.6c2.5-4.7,4.5-9.6,6.8-14.4
			c3.3-6.7,4.4-13.8,4.1-21.3c-0.3-7.1,0.2-14.2-0.2-21.3c-0.2-3.7-1.4-7.4-2.2-11.1c-0.3-1.4-1.1-1.8-2.6-1.6
			c-11.8,1.2-22-2.8-30.8-10.2c-6.7-5.6-10.8-13-13.8-21.1c-0.6-1.7-1.3-2.4-3.2-2.5c-5.6-0.4-9.5-3.6-12.1-8.5
			c-0.6-1-0.9-2.2,0.5-2.9c1.3-0.6,2,0.1,2.6,1.3c2,3.6,4.8,6.2,9,6.8c0.6,0.1,1.4,0.2,2,0c2.4-0.9,3.1,0.3,3.7,2.3
			c3.1,9.3,7.7,17.6,15.7,23.7C858.6,393.7,860.8,394.9,862.8,396.2z M890.1,365.8c-12.4,0.8-20.4,5.6-24.9,16.1
			c-3.1,7.4,1,16.6,9.9,17.7c11,1.3,20.2-2.7,27-11.3c6.4-8.1,3.1-16-4.4-20.1C895,366.8,891.8,366.4,890.1,365.8z"/>
		<path d="M916.1,132.7c-4.7-4.2-9-8-13.6-12.2c-1.1,0.6-3,1.7-4.9,2.8c-2.2,1.2-3.2,0.7-3.3-1.7c-0.2-3.4-1.4-6.2-4.3-8.1
			c-1.1-0.7-1.7-1.8-0.7-2.7c0.5-0.5,2-0.5,2.6-0.1c3.1,1.8,4.7,4.8,5.7,8.5c1.1-0.6,2.2-1.2,3.4-1.9c-4.2-5.4-8.4-10.5-9.9-16.9
			c-7.5,5.4-15,10.8-22.7,16.3c4.5,2.1,8.6,4.7,14,4.9c-1.5-3.3-1.5-6.3,0.6-8.9c0.5-0.7,1.9-1.4,2.4-1.1c1.3,0.6,1.1,1.8,0.4,3
			c-1.9,3.3-1.8,4,0.6,6.7c1.4,1.6,1,3.2-1,3.4c-2.6,0.2-5.4,0.4-7.8-0.4c-4.7-1.5-9.2-3.6-13.8-5.6c-1.5-0.6-1.6-1.9-0.2-2.9
			c4.7-3.3,9.5-6.5,14.1-9.9c3.6-2.6,7.1-5.5,10.6-8.2c-3.6-1.5-7.1-2.6-10.1-4.3c-8.6-5-10.5-16-4.1-22.8c3.9-4.2,9.1-6,14.6-6.8
			c5.6-0.9,11-0.6,15.7,2.8c5.7,4.2,7.7,10.2,6.6,17.1c-1,6.5-5.4,10.3-11.5,12.2c-0.6,0.2-1.3,0.4-1.9,0.6c0,0-0.1,0.1-0.2,0.4
			c3.9,1.3,7.8,2.5,11.7,3.8c3.4,1.2,6.9,2.4,10.2,3.6c2.5,0.9,2.8,2.3,0.7,4c-3.7,2.9-7.5,5.6-11.2,8.3c-0.7,0.5-1.5,0.9-2.5,1.6
			c3,3.1,5.7,6.1,8.5,8.9c4.8,4.8,9.7,9.6,14.6,14.3c1.8,1.8,3.5,3.7,5.5,5.1c4.8,3.3,6.3,7.9,6.9,13.4c0.7,6.5,2.1,12.8,3.5,19.2
			c1.1,4.9,3.7,9,8.4,11.5c0.6,0.3,1.3,1.6,1.1,2.2c-0.4,1.3-1.5,1.4-2.7,0.8c-5.8-2.9-9.1-7.7-10.3-13.9c-1.4-7.5-2.6-15-4.1-22.5
			c-0.3-1.6-1.1-3.3-2.1-4.4c-5.3-5.6-10.8-11-16.3-16.4c-0.5-0.5-1.6-0.7-2.2-0.5c-7.6,3.3-15.1,6.8-22.7,10.2c-2.3,1-3,2.6-3,5
			c-0.1,7.7-0.4,15.4-0.9,23.1c-0.1,2.3-0.9,4.6-1.6,6.9c-0.3,0.8-1.3,1.6-2.2,1.7c-3.3,0.5-6.6,0.7-9.9,1c-1.3,0.1-2.7,0.2-2.8-1.6
			c0-1.8,1.4-1.7,2.7-1.9c2.5-0.2,5-0.6,7.5-0.7c1.4-0.1,2-0.7,2.1-2c0.5-4.4,1.3-8.8,1.5-13.2c0.3-5.2,0.3-10.5,0.3-15.8
			c0-2.6,1.2-4.4,3.5-5.4c3.6-1.7,7.4-3.1,11-4.7C907,136.8,911.2,134.9,916.1,132.7z M892,93.9c1.1-0.1,2.2-0.1,3.3-0.2
			c6.5-0.7,11.5-5.2,12.4-11.2c1-6.1-2-11.9-7.8-14.3c-7.7-3.1-15.2-1.5-21.5,3.4c-6.9,5.3-6.2,13.5,1,18.4
			C883.3,92.6,887.5,93.9,892,93.9z M916.2,107.4c-0.1-0.2-0.1-0.5-0.2-0.7c-7-2.3-14.1-4.6-21.5-7c1.6,6.6,5.6,11.2,9.7,16.1
			C908.3,112.9,912.3,110.2,916.2,107.4z"/>
		<path d="M120.8,619.9c-2.5-3.5-4.4-7.1-4.7-11.4c-0.4-6.3,2.3-11.5,6.7-15.6c5.4-5.2,11.8-8,19.5-7.6c9,0.5,17.1,8.9,16.1,17.8
			c-0.5,4.6-2.8,8.2-5.8,11.5c-1,1.1-2,2.1-3.1,3.4c0.8-0.4,1.5-0.7,2.1-1.1c10.5-6.4,17.8-15.5,22-27c0.4-1.2,1-1.9,2.3-2.3
			c3.1-1,5.2-3.1,6.1-6.2c0.4-1.2,0.6-2.4,2.3-1.9c1.6,0.5,1.4,1.8,1,2.9c-1.1,3.6-3.5,6.1-6.8,7.9c-1,0.5-2,1.5-2.4,2.6
			c-5.4,12.9-13.9,22.8-26.6,29c-3.1,1.5-6.6,2.3-9.9,3.2c-1.4,0.4-1.9,0.9-1.9,2.4c0.1,5.6,0,11.3,0,16.9c0,6.8,0.1,13.6,0,20.4
			c0,1.8,0.6,2.2,2.3,2.6c6.2,1.4,12.4,2.9,18.4,4.9c4.3,1.4,5.5,4.1,4.4,8.4c-1.5,6-3.3,11.8-4.9,17.7c-0.6,2.1-0.9,4.3-1.3,6.5
			c3,0.9,5.8,1.7,8.5,2.6c0.7,0.2,1.6,0.6,2,1.2c0.3,0.4,0.3,1.4,0,1.8c-0.3,0.4-1.2,0.8-1.6,0.7c-3.7-0.9-7.5-1.8-11.1-3
			c-0.6-0.2-1.2-1.5-1.1-2.3c0.5-3.3,1.1-6.6,1.9-9.8c1.2-4.7,2.7-9.4,3.8-14.1c1-4.3,0-5.9-4-7.7c-5.3-2.5-11.1-3.1-16.8-3.7
			c-0.4,0-1.2,0.6-1.4,1.1c-3.4,6.9-4.9,14.3-4.6,21.9c0.3,8.7,2.1,17.2,4.9,25.4c0.5,1.3,0.8,2.7,1.1,4.1
			c1.1,5.2-3.7,11.2-9.1,11.2c-0.5,0-1.4-0.5-1.5-1c-0.1-0.6,0.2-1.4,0.5-2c0.1-0.2,0.5-0.3,0.8-0.4c5.4-1.9,6.4-3.6,5.1-9.2
			c-1.6-6.8-3.6-13.6-4.8-20.5c-1.9-10.8-0.2-21.2,4.5-31.2c0.5-1,0.7-2.2,0.7-3.4c0.1-7.6,0-15.3,0.1-22.9c0-5.1,0.2-10.2,0.3-15.3
			c0-1.2,0-2.1-1.7-2.1c-12.7,0.2-21.9-6.1-29-16.1c-4.3-6-7.3-12.7-9.7-19.6c-0.4-1.3-1-2.1-2.4-2.4c-3.2-0.8-5.6-2.7-7.4-5.3
			c-0.4-0.5-0.1-1.6,0-2.5c0.9,0.1,2-0.1,2.5,0.3c2.4,2.3,4.8,4.3,8.3,4.7c0.6,0.1,1.3,1.4,1.7,2.3c3.2,9.2,6.9,18,13.6,25.2
			C113.5,615.8,116.8,618.4,120.8,619.9z M142.5,588.7c-11.5,0-19.8,6.2-22.3,14.9c-2.6,9.2,3.6,17.4,12.9,16.7
			c7.8-0.6,14.2-4.1,18.9-10.3c3.1-4.1,4.3-8.7,1.8-13.5C150.9,591.1,146.1,588.7,142.5,588.7z"/>
		<path d="M613.9,705.1c-2.5,3.7-5.2,7.8-8,12.1c2.6,3.5,5.2,7.1,8.1,10.9c5.1-5.3,9.5-10.5,12.4-16.7c0.3-0.6,0.5-1.2,0.8-1.8
			c0.7-1.4,1.6-1.8,3-0.8c1.3,0.9,2.8,1.7,4.2,2.4c1.7,0.8,3.4,0.9,5.1,0c0.5-0.3,2,0.1,2,0.3c0.1,0.8,0.2,2-0.3,2.5
			c-1.8,1.7-4.1,1.6-6.3,0.9c-1.8-0.5-3.4-1.4-5.3-2.2c-0.6,1.1-1.2,2.5-2,3.6c-3.8,4.9-7.7,9.7-11.5,14.6c-1.1,1.4-2.3,1.3-3.3,0
			c-2.5-3-5-6-7.5-9c-0.6-0.7-1-1.5-1.6-2.3c-2.6,2.8-5.1,5.5-7.7,8.1c-1.7,1.8-2.7,1.7-3.7-0.6c-3-6.7-4.1-13.9-4.2-21.2
			c-0.1-6.7-1.4-12.9-3.5-19.3c-4.7-13.6-3.1-26.8,5.3-39c-1.9-1.4-4-2.8-5.8-4.5c-4.6-4.3-9-8.7-13.5-13.1
			c-4.8-4.7-6.1-10.7-6.5-17c-0.3-3.5,0-7,0-10.5c-3.7-1.1-6.8-2.8-9.1-5.7c-0.7-0.9-1.7-1.8-0.5-2.8c1.3-1.1,2.2-0.4,3.2,0.7
			c2.1,2.3,4.4,4.4,7.9,4.3c1.7,0,1.9,1.3,1.9,2.7c0,4.5-0.1,9,0.1,13.5c0.3,6.2,3.3,10.8,8.3,14.3c0.4-2.2,0.4-4.6,1.2-6.6
			c2.7-7,7.8-11.2,15.3-12.2c12-1.6,25.4,7.4,28.4,19c1.4,5.2,0.2,10-2.6,14.4c-0.4,0.6-0.8,1.2-1.2,1.9c0,0,0,0.1,0,0.2
			c5.1,0.7,9.5-1.4,11.5-5.9c2.3-5.4,4.2-11,6.3-16.6c0.4-1,0.8-1.9,1.2-2.9c0.8-2.2,1.9-3.6,4.6-3.9c3-0.3,5.5-2.2,6.8-5.1
			c0.6-1.4,1.6-1.8,2.8-1.2c1.4,0.7,0.7,1.9,0.2,2.9c-1.9,3.6-4.9,5.9-8.9,6.8c-1.4,0.3-2.1,0.9-2.6,2.3c-2.1,5.8-4.2,11.5-6.4,17.2
			c-2.6,6.6-7.7,9.7-14.6,10c-3.3,0.2-6.5,0.4-9.8,1.3c-4.3,1.2-8.7,0.4-12.8-1.2c-1.4-0.5-2.1-0.2-2.9,0.9c-5.7,7.8-7,16.6-6.3,26
			c0.6,7.5,3.4,14.1,7.6,20.3c3.7,5.3,7,11,10.9,17c2.6-4.3,5-8.3,7.3-12.3c1.1-2,1.9-2.2,3.7-0.7c2.4,2.1,5.3,3.2,8.4,3.6
			c1.3,0.2,2.4,0.5,2.2,2.1c-0.2,1.7-1.5,1.6-2.7,1.3C620.1,707.1,617,706,613.9,705.1z M601.1,648c12.3,0.5,17.9-9.8,16.1-17.1
			c-2.5-10.7-15.6-19-26.4-16.8c-9.4,2-14.4,12.1-9.6,20.4C586.1,642.9,593.9,647.2,601.1,648z M591.5,700.7
			c-1,5.5,0.9,18.6,3.4,23.2c2.3-2.5,4.5-4.9,6.8-7.4c-3.2-5.1-6.4-10.1-9.5-15.1C591.9,701.1,591.7,701,591.5,700.7z"/>
		<path d="M845.5,634.6c-1.1-0.8-1.6-1.2-2.1-1.5c-6.5-4.2-8.7-9.9-6.7-17.4c2.4-9,11.9-17.3,20.7-18.2c12.7-1.4,21.4,9.1,17,21.9
			c-1.2,3.5-3.8,6.6-5.8,9.8c-0.2,0.3-0.5,0.6-1.1,1.4c11.1-3.1,19.3-8.9,24-19.1c2-4.2,2.9-8.7,3-13.3c0-1.6,0.7-2.4,2.2-2.8
			c1.8-0.5,3.6-1,5.1-2c0.9-0.6,1.6-1.9,2-3.1c0.4-1.2,0.9-2.1,2.3-1.6c1.3,0.4,1.4,1.5,1,2.7c-1,3.7-3.5,5.7-7.1,6.6
			c-1.4,0.4-2.1,1-2.3,2.6c-1.7,18.8-15.3,30.8-32.7,33.9c-0.1,0-0.2,0.1-0.5,0.3c0.1,0.3,0.2,0.6,0.4,0.9
			c8.1,10.5,12,22.7,13.7,35.6c0.9,7.2,1.6,14.5,1.3,21.7c-0.3,7.3-1.9,14.6-3.2,21.9c-1.1,6.4-2,12.7-1.6,19.2c0.1,1.4,0.5,2,2,2.3
			c2.6,0.5,5.1,1.4,7.7,2.2c1.2,0.4,2,1,1.6,2.4c-0.5,1.6-1.6,1.2-2.7,0.9c-3.3-0.9-6.6-1.6-9.8-2.6c-0.7-0.2-1.7-1.4-1.7-2.1
			c-0.1-5.6-0.4-11.3,0.2-16.8c0.9-8.1,2.6-16.1,3.9-24.1c0.4-2.4,0.3-4.9,0.2-7.4c-3,10.3-7.2,20-11.8,29.6
			c-2.9,6.1-5.5,12.3-8.3,18.4c-0.4,0.8-1.4,1.4-2.2,1.7c-3,0.9-6.1,1.7-9.2,2.5c-1.1,0.3-2.3,1.1-2.9-0.6c-0.5-1.5,0.5-2.2,1.7-2.6
			c2.7-0.9,5.5-1.6,8.3-2.4c0.6-0.2,1.4-0.6,1.7-1.1c4.7-10.2,9.4-20.4,13.8-30.7c3.7-8.8,6.4-18,8-27.4c0.4-2.5-0.3-5.1-0.7-7.7
			c-2-11.1-5.6-21.6-12.6-30.7c-1.4-1.8-2.6-2.3-5-1.9c-6.6,1-13.3,2.1-20,2c-12.2-0.2-22.3-4.9-28.5-16c-0.3-0.6-1.2-1-1.9-1.2
			c-3.2-0.9-6.5-1.8-8.8-4.4c-0.8-0.9-1.4-2.3-1.6-3.5c-0.1-0.5,0.7-1.5,1.3-1.7c0.4-0.2,1.6,0.3,1.8,0.7c1.5,4.3,5.2,5,8.9,5.5
			c1.4,0.2,2.2,0.6,2.9,1.9c4.1,7.8,10.4,12.9,19.2,14.7c1.3,0.3,2.6,0.8,3.9,0.8C837.9,634.6,841.4,634.6,845.5,634.6z
			 M854.1,632.9c1.2-0.2,2.4-0.3,3.5-0.5c7.8-1.9,13.9-9.7,14.3-18.3c0.4-9.7-7.1-15.5-16.4-12.6c-6.7,2.1-11.5,6.5-14.6,12.8
			c-2.9,5.9-1.8,11.8,2.9,15.2C846.8,631.6,850.2,632.8,854.1,632.9z"/>
		<path d="M136.5,450.6c2.5-4.4,5.9-7.5,10.6-9.1c0.7-0.2,2,0,2.4,0.5c0.8,1.1,0.2,2.1-1,2.6c-4.6,1.8-7.9,4.9-9.6,9.6
			c-0.6,1.7-1.8,1.8-3.1,0.6c-8.1-7.4-16.6-14.3-23.4-23c-7.8-10.1-14.1-20.9-17.5-33.4c-3-11.1-1.7-21.8,1.8-32.5
			c1.4-4.3,1.4-4.3-2-7.1c-3.3-2.7-5.3-6.2-6.6-10.3c-1.8-5.9-5.8-10.5-10.4-14.3c-8.5-7.1-18.5-11.1-29.2-13.3
			c-2-0.4-4.4,0.1-6.5,0.5c-1.4,0.3-2.4,0.3-3.3-0.9c-2.4-3.5-5.8-5.7-9.8-6.9c-1.3-0.4-2.1-0.9-1.7-2.3c0.4-1.4,1.5-1.4,2.7-1
			c4,1.3,7.5,3.2,10.2,6.4c0.4,0.5,1.2,1.1,1.7,1c6-1.2,11.6,0.6,17.1,2.6c9.4,3.4,18.1,7.8,25,15.2c1.4,1.5,2.7,3.1,3.8,4.5
			c1.2-2.5,2.2-5.3,3.8-7.6c4.4-6,12.5-8,20.7-5.6c4.9,1.5,9.1,4.2,12.5,7.3c3.9-3.1,7.7-6.1,11.4-9.2c0.5-0.4,0.7-1.2,0.9-1.9
			c0.9-3.3,1.9-6.6,4.7-8.9c0.6-0.4,1.6-0.2,2.5-0.3c0,0.9,0.3,2.2-0.1,2.6c-2.5,2.4-3.3,5.5-4,8.7c-0.2,1-1.1,1.9-2,2.7
			c-3.1,2.8-6.3,5.5-9.5,8.3c-0.9,0.8-0.8,1.6-0.1,2.7c3.3,5.1,4.6,10.6,2.4,16.5c-2.4,6.7-8.1,10.8-15.8,10.7c-4-0.1-8-1.2-11.9-2
			c-0.6-0.1-1.2-0.4-1.8-0.6c-6.6,13-6.1,34.3,1.1,45.7c3.7-1.6,7.4-3,11.1-4.7c6.6-3,13.1-6.2,19.6-9.3c2.8-1.3,3.5-0.7,3.8,2.4
			c0.5,7.2,1.2,14.4,1.9,22c1.4-1.1,2.4-2.1,3.6-2.7c2.7-1.4,5.4-2.7,8.2-3.8c0.5-0.2,1.4,0.5,2.2,0.8c-0.5,0.8-0.8,2.2-1.4,2.3
			c-4.9,1-8.3,4.4-11.9,7.5c-0.7,0.7-1.8,0.9-2.8,1.4c-0.4-1-1.1-2-1.2-3c-0.7-7.1-1.3-14.3-2-21.4c0-0.5-0.2-1-0.3-1.4
			c-9.8,4.4-19.5,8.8-29.4,13.3C111.6,427.6,123.2,439.7,136.5,450.6z M113.9,362c1.1-0.1,2.2-0.1,3.4-0.2c5.7-0.5,9.7-3.6,10.7-8.7
			c0.7-3.7,0.6-7.4-1.2-10.8c-4.5-8.2-11.6-12.4-20.8-13c-6.5-0.4-11.4,2.3-13.2,7.3c-2.8,7.9-2.1,13.6,2.8,18.3
			C100.6,359.8,106.9,361.8,113.9,362z"/>
		<path class="st0" d="M528,292.4c8,0,14.3,4.6,15.2,11.7c0.3,2.9-0.1,6.2-1.4,8.8c-3.6,7.7-9.9,12-18.5,12.5
			c-8.5,0.5-14.9-6.4-14.1-15.3C510,301,517.2,292.3,528,292.4z M523.6,323.2c0.1-0.2,0.2-0.4,0.3-0.6c3.6,0,7.2-1.4,9.1-3.8
			c0.5-0.6,0.4-1.8,0.5-2.7c-0.9,0.3-2,0.3-2.6,0.8c-3.2,3.2-8.4,3.6-11.9,0.8c-0.8-0.6-1.7-1.5-2.3-0.4c-0.3,0.6,0,2.2,0.5,2.6
			C519.2,321.3,521.5,322.2,523.6,323.2z M516.5,309.4c0.1,0,0.1,0,0.2,0c0,0.4-0.1,0.8,0,1.1c0.4,0.7,1,1.3,1.5,1.9
			c0.4-0.7,1-1.3,1.2-2c0.3-1,0.4-2.2,0.3-3.3c0-0.5-0.5-1.4-0.9-1.5c-0.6-0.1-1.5,0.3-1.7,0.8C516.8,307.3,516.7,308.4,516.5,309.4
			z M534.3,308.8c-0.6-1-1.1-2.8-1.8-2.8c-2.1-0.2-1.3,1.7-1.5,2.9c0,0.1,0,0.1,0,0.2c0.2,1.2-1.2,3.2,1.1,3.3
			C534.5,312.6,533.4,310.3,534.3,308.8z"/>
		<path class="st0" d="M505.7,361.3c-4.6-1-8.7-1.9-13.4-2.9c6.8-7.6,13.1-14.8,19.4-21.9c0.2,0.1,0.4,0.2,0.6,0.3
			C507.8,344.2,505.3,352.1,505.7,361.3z"/>
		<path class="st0" d="M681.4,190c-4.1-0.1-9.1-2-13.4-6c-7.3-6.8-6.4-16.8,1.9-22.3c8.6-5.7,21.2-2.8,26.5,6.1
			c2.8,4.8,3.4,9.8,0.7,14.8C694.5,187.5,689.4,190.1,681.4,190z M680.4,188c0.2-0.2,1.3-0.8,1.2-1.2c-0.1-0.7-0.8-1.5-1.5-1.7
			c-2.2-0.7-4-1.5-4.2-4.2c-0.1-0.6-0.8-1.1-1.3-1.6c-0.5,0.6-1.3,1.2-1.3,1.8C673.1,184.5,676.4,187.8,680.4,188z M686.8,177.1
			c-0.5-0.6-0.8-1.1-1.2-1.3c-1.7-0.8-5.6,1.4-5.8,3.4c0,0.5,0.4,1.3,0.8,1.6c0.4,0.2,1.2-0.1,1.7-0.4c1-0.6,1.9-1.2,2.8-1.9
			C685.6,178.1,686.1,177.6,686.8,177.1z M690.5,180c-1.5,1.2-2.9,2.1-4,3.3c-0.3,0.3-0.1,1.3-0.1,1.9c0.7-0.1,1.5,0.1,2.1-0.2
			c0.9-0.4,1.8-0.9,2.6-1.5c0.5-0.4,1.2-1.1,1.2-1.5C692.1,181.3,691.3,180.9,690.5,180z"/>
		<path class="st0" d="M639.9,200.5c0.2,0.3,0.3,0.4,0.3,0.5c-0.2,4.9-0.2,5-5.2,5.5c-4.3,0.5-8.6,1-13.1,1.1
			C628,205.3,634,202.9,639.9,200.5z"/>
		<path class="st0" d="M399.5,92c-7.6-0.4-14.4-2-20.1-6.9c-7.9-6.7-5-16.1,0.6-20.6c8.5-6.9,25.9-6.7,33.9,4.8
			c6.6,9.4,2,20.2-9.5,22.2C402.7,91.7,400.9,91.8,399.5,92z M399.4,89.2c1.2-0.2,3.2-0.2,4.8-1c1.6-0.8,3-2.2,4.3-3.5
			c0.3-0.3-0.2-1.4-0.6-2c-0.1-0.2-1.4,0-1.6,0.4c-1.9,3-4.9,3.3-8,3.2c-4.3-0.2-8.3-1.3-12-3.4c-0.6-0.3-1.5,0-2.3,0
			c0.3,0.8,0.5,1.6,0.8,2.4c0.1,0.2,0.4,0.2,0.6,0.3C389.6,88,394.1,88.9,399.4,89.2z M385.5,73.7c-1.6,0.6-2.8,0.8-3.7,1.4
			c-0.5,0.3-0.6,1.1-0.9,1.7c0.7,0.3,1.5,0.9,2,0.7c2.3-1,4.2-0.5,6.2,1c0.4,0.3,1.4,0,2.2,0c-0.1-0.7,0-1.8-0.4-2
			C389.1,75.5,387.2,74.6,385.5,73.7z M409.3,77.9c-0.2-0.5-0.3-0.8-0.4-1.1c-1.4-3-7.4-3.8-9.5-1.2c-0.3,0.4-0.4,1.3-0.1,1.5
			c0.5,0.4,1.5,0.8,1.9,0.5c2.2-1.3,4-1.1,5.6,1c0.2,0.3,1.1,0.4,1.5,0.3C408.7,78.9,409,78.2,409.3,77.9z"/>
		<path class="st0" d="M301,578.8c9.9,0,20.2,8,22.3,17.2c1.7,7.3-3.8,18.2-14.7,17c-9.2-1-16.4-5.4-21.1-13.4
			C281.8,590,289.2,578.8,301,578.8z M309.3,609.5c1-0.4,3-0.9,4.8-1.8c0.6-0.3,0.8-1.4,1.2-2.1c-0.9,0-1.7-0.2-2.6,0
			c-1.8,0.3-3.6,1.1-5.3,0.9c-4.5-0.4-8.6-2.1-11.5-5.9c-0.3-0.4-1.2-0.4-1.8-0.6c-0.2,0.7-0.7,1.5-0.5,2.1c0.3,0.9,1,1.6,1.7,2.3
			C299,607.7,303.4,609.1,309.3,609.5z M295.2,591.7c-0.4,0.1-1,0-1.4,0.3c-0.6,0.5-1.1,1.3-1.6,2c0.8,0.3,1.6,0.9,2.3,0.8
			c1.9-0.3,3.2,0.6,4.5,1.8c0.5,0.5,1.6,0.5,2.4,0.8c0-0.9,0.2-1.9-0.2-2.6C299.9,592.7,297.7,592,295.2,591.7z M311.9,594.9
			c-1.4,0.8-2.6,1.3-3.7,2c-0.3,0.2-0.5,1.2-0.3,1.5c0.3,0.4,1.4,0.9,1.6,0.7c2.1-1.6,3.7-0.6,5.4,0.7c0.4,0.3,1.4,0,1.9-0.4
			c0.3-0.2,0.2-1.4-0.1-1.7C315.2,596.8,313.6,595.9,311.9,594.9z"/>
		<path class="st0" d="M299.2,313.8c8.9,0,18.8,8.5,20.1,17.2c1.2,8-5.3,15.2-13.8,15.1c-10.4-0.1-20.3-11.8-18.7-22
			C287.8,317.8,292.6,313.8,299.2,313.8z M303,343.2c2.2-0.8,4.4-1.6,6.5-2.6c0.5-0.2,0.5-1.3,0.8-2c-0.7-0.1-1.4-0.4-2.1-0.3
			c-0.5,0-1.1,0.5-1.6,0.7c-3.1,1.3-6,1.2-8.8-0.9c-2.8-2.2-3.9-5.2-4.7-8.5c-0.1-0.5-0.9-0.9-1.4-1.4c-0.5,0.6-1.4,1.2-1.3,1.7
			C290.7,335.4,295.3,342.8,303,343.2z M304.1,333.6c0.9-1,1.7-1.6,2-2.3c0.5-0.9,0.7-2,0.8-3c0-0.2-1.4-0.8-1.5-0.7
			c-0.9,1.3-1.8,2.7-2.5,4.2C302.8,332,303.5,332.7,304.1,333.6z M296.5,328.6c1.3-0.1,3.5-3.7,3-4.7c-0.2-0.3-0.8-0.8-1-0.7
			c-0.8,0.4-1.8,0.8-2.2,1.5c-0.5,1-0.6,2.3-0.8,3.5C295.6,328.2,296.3,328.5,296.5,328.6z"/>
		<path class="st0" d="M113.4,69.2c7.8-0.1,14.2,2.4,18.9,8.3c7.6,9.5,3.5,20.6-8.4,22.8c-8.3,1.6-16.2,0-23.3-4.7
			c-11.7-7.7-6.3-19.9,1.6-23.9C105.8,69.8,109.7,69,113.4,69.2z M118.4,98.2c1.3-0.3,3.4-0.4,5.2-1.1c1.5-0.6,2.8-1.9,3.9-3.1
			c0.4-0.4-0.1-1.5-0.1-2.3c-0.7,0.2-1.8,0.2-2.2,0.7c-1.4,1.8-3.2,2.6-5.4,2.7c-5,0.3-9.7-0.9-14.1-3.2c-1-0.5-2.1-1.2-2.6,0.2
			c-0.2,0.6,0.6,1.9,1.2,2.3C108.4,96.9,113,97.7,118.4,98.2z M104.7,82.8c-1.6,0.6-2.9,0.9-3.9,1.5c-0.4,0.2-0.7,1.2-0.5,1.7
			c0.2,0.4,1.2,0.9,1.6,0.7c2.5-1.2,4.5-0.7,6.6,1c0.4,0.3,1.4-0.1,2.1-0.2c-0.2-0.6-0.1-1.6-0.5-1.9
			C108.3,84.6,106.4,83.7,104.7,82.8z M128.4,86.9c-0.4-0.7-0.7-1.2-1-1.6c-2-2.4-5.8-2.9-8.3-0.9c-0.5,0.4-0.6,1.1-0.9,1.7
			c0.7,0.2,1.7,0.8,2.2,0.6c2.2-1.1,3.9-0.9,5.4,1.1c0.3,0.3,1.1,0.5,1.5,0.4C127.7,88,128,87.3,128.4,86.9z"/>
		<path class="st0" d="M890.1,365.8c1.8,0.5,5,0.9,7.6,2.4c7.5,4.2,10.8,12,4.4,20.1c-6.8,8.6-16,12.6-27,11.3
			c-8.9-1.1-13-10.3-9.9-17.7C869.6,371.4,877.7,366.6,890.1,365.8z M879.9,397.3c7.7-0.7,13.2-3.6,17.8-8.4
			c0.5-0.5,0.6-1.9,0.3-2.4c-0.8-1.1-1.6-0.3-2.3,0.5c-3.2,3.2-6.9,5.5-11.2,6.8c-2.6,0.8-5.2,1.1-7.5-0.9c-0.4-0.4-1.4-0.1-2.1-0.1
			c0.1,0.8,0,2,0.4,2.3C876.9,396.1,878.8,396.8,879.9,397.3z M896.4,377.9c-3,0.2-5.3,1.5-6.8,4c-0.3,0.6,0.1,1.5,0.2,2.3
			c0.7-0.2,1.7-0.3,2.1-0.8c1.4-1.8,2.9-3,5.4-2.6c0.5,0.1,1.1-0.8,1.7-1.2c-0.4-0.5-0.7-1.2-1.2-1.5
			C897.5,377.9,896.9,378,896.4,377.9z M879.2,386c0.5,0,1.1,0.2,1.5,0c0.5-0.2,1.1-0.7,1.1-1.1c0.1-0.4-0.4-1.1-0.8-1.3
			c-2.8-1.5-7.3,0.2-8.3,3.2c-0.2,0.7,0,2,0.5,2.4c1,0.8,1.6-0.1,2.1-1.1C876,386.4,877.4,385.7,879.2,386z"/>
		<path class="st0" d="M892,93.9c-4.6,0-8.8-1.3-12.6-3.8c-7.2-4.8-7.9-13-1-18.4c6.4-4.9,13.8-6.5,21.5-3.4
			c5.8,2.3,8.8,8.2,7.8,14.3c-1,6-5.9,10.4-12.4,11.2C894.3,93.8,893.1,93.8,892,93.9z M891.5,90.7c3-0.1,5.9-0.4,7.6-3.2
			c0.3-0.5-0.1-1.4-0.1-2.1c-0.7,0.1-1.4,0.1-2.1,0.3c-1.6,0.7-3,1.9-4.6,2.1c-3,0.3-5.8-0.6-8.3-2.4c-0.7-0.6-1.5-1.5-2.4-0.4
			c-0.9,1.1-0.3,2,0.7,2.8C884.9,90,888.2,90.6,891.5,90.7z M893.4,79.2c0.2,0.1,0.3,0.2,0.5,0.4c0,0.4-0.2,0.9,0,1.3
			c0.3,0.6,0.8,1.2,1.2,1.8c0.5-0.5,1.1-0.9,1.5-1.5c0.2-0.3,0.2-0.9,0.2-1.3c-0.1-1.3,0.7-3.2-1.4-3.3
			C894.8,76.6,894.1,78.3,893.4,79.2z M882.7,79.1c0,0.6-0.2,1.1-0.1,1.5c0.3,0.6,0.8,1,1.2,1.5c0.5-0.5,1.1-0.9,1.5-1.5
			c0.2-0.2,0.1-0.7,0.1-1.1c0-1.3,1.4-3.3-1-3.6C882.2,75.7,883.1,78.1,882.7,79.1z"/>
		<path class="st0" d="M916.2,107.4c-4,2.7-7.9,5.5-12.1,8.3c-4.1-4.9-8.1-9.5-9.7-16.1c7.4,2.4,14.5,4.7,21.5,7
			C916.1,107,916.2,107.2,916.2,107.4z"/>
		<path class="st0" d="M142.5,588.7c3.6,0,8.4,2.4,11.3,7.8c2.6,4.8,1.3,9.4-1.8,13.5c-4.7,6.2-11.1,9.7-18.9,10.3
			c-9.3,0.7-15.5-7.5-12.9-16.7C122.7,594.9,131,588.7,142.5,588.7z M133.8,617.2c3.3-1,6.9-1.8,10.2-3.2c1.7-0.7,3.1-2.5,4.3-4
			c0.4-0.4-0.2-1.7-0.3-2.5c-0.7,0.3-1.6,0.4-2,1c-3.6,4.7-12.1,6.7-17.5,4.2c-0.6-0.3-1.6,0.1-2.3,0.3c0.3,0.7,0.4,1.9,0.9,2.1
			C129,615.8,131.2,616.4,133.8,617.2z M149.1,602.8c0.1-0.3,0.2-0.6,0.3-0.9c-0.6-0.3-1.1-0.6-1.7-0.9c-2.3-1.2-7.1,0.7-7.9,3.2
			c-0.2,0.6,0.3,1.4,0.5,2.1c0.6-0.2,1.5-0.2,1.9-0.6c1.3-1.6,2.7-2.6,5-1.8C147.6,603.9,148.5,603.1,149.1,602.8z M130.3,603.6
			c-1.5,0.9-3.1,1.6-4.5,2.6c-0.4,0.3-0.4,1.5-0.1,1.9c0.3,0.4,1.5,0.5,1.9,0.2c1.5-1.2,2.9-1.9,4.8-0.7c0.3,0.2,1.4-0.2,1.6-0.6
			c0.2-0.4,0-1.4-0.3-1.7C132.8,604.6,131.6,604.2,130.3,603.6z"/>
		<path class="st0" d="M601.1,648c-7.3-0.8-15-5.1-19.9-13.5c-4.8-8.3,0.2-18.4,9.6-20.4c10.8-2.3,23.8,6.1,26.4,16.8
			C619,638.2,613.4,648.4,601.1,648z M603.1,644.6c1.2-0.5,3.4-1.1,5.4-2.1c0.4-0.2,0.5-1.3,0.7-2c-0.7-0.1-1.5-0.4-2.2-0.2
			c-1,0.2-1.9,1-2.9,1.1c-5.8,0.7-10.6-1.2-14.5-5.5c-0.4-0.5-1.3-0.5-2-0.8c-0.1,0.8-0.4,1.6-0.3,2.3c0,0.4,0.5,0.7,0.8,1.1
			C591.9,642.7,596.7,644.1,603.1,644.6z M589.6,627.8c-0.5,0.2-1.5,0.3-2.2,0.8c-0.4,0.3-0.6,1.2-0.4,1.7c0.1,0.4,1,0.9,1.3,0.8
			c2.6-1.1,4.2,0.3,5.7,2.1c0.3,0.4,1.5,0.5,1.9,0.3c0.4-0.3,0.6-1.4,0.3-1.8C595,629,592.7,628.2,589.6,627.8z M606.6,631.1
			c-1.4,0.7-2.6,1.1-3.6,1.7c-0.4,0.2-0.6,1.3-0.4,1.7c0.2,0.4,1.3,0.8,1.6,0.6c2-1.3,3.6-0.6,5.2,0.7c0.4,0.3,1.4-0.1,2.1-0.2
			c-0.1-0.7,0-1.6-0.4-1.9C609.7,632.7,608.1,632,606.6,631.1z"/>
		<path class="st0" d="M591.5,700.7c0.2,0.3,0.5,0.5,0.6,0.7c3.2,5,6.3,10,9.5,15.1c-2.3,2.5-4.5,4.9-6.8,7.4
			C592.4,719.2,590.5,706.2,591.5,700.7z"/>
		<path class="st0" d="M854.1,632.9c-3.9,0-7.3-1.2-10.4-3.5c-4.6-3.4-5.8-9.2-2.9-15.2c3.1-6.3,7.9-10.7,14.6-12.8
			c9.3-2.9,16.8,2.9,16.4,12.6c-0.4,8.6-6.5,16.4-14.3,18.3C856.4,632.6,855.2,632.7,854.1,632.9z M855.5,630.1
			c2.2-0.8,4.2-1.3,5.9-2.3c4-2.3,5.8-6.2,6.5-10.6c0.1-0.6-0.8-1.4-1.3-2.2c-0.5,0.5-1,1.1-1.4,1.7c-0.2,0.3-0.2,0.8-0.3,1.3
			c-1.6,6.3-7.3,11.7-14.7,7.1c-0.4-0.3-1.3,0.2-2,0.4c0.2,0.7,0.2,1.8,0.7,2C850.9,628.4,853.2,629.2,855.5,630.1z M859.7,609.3
			c-0.3,0.2-0.5,0.4-0.8,0.7c-0.4,0.2-1,0.4-1,0.7c-0.1,0.6-0.1,1.3,0.1,1.8c0.7,1.1,1.6,2.1,2.5,3.1c0.1,0.1,1.2-0.5,1.1-0.7
			c-0.1-1.1-0.4-2.2-0.7-3.3C860.6,610.8,860.1,610,859.7,609.3z M854.6,618.3c-0.9-1.3-1.6-2.8-2.7-3.8c-0.8-0.8-2.2,0.3-1.9,1.4
			c0.4,1.3,1.2,2.5,2,3.6c0.2,0.3,1.1,0.3,1.6,0.1C854.1,619.5,854.3,618.8,854.6,618.3z"/>
		<path class="st0" d="M113.9,362c-6.9-0.1-13.2-2.2-18.4-7c-4.9-4.7-5.6-10.4-2.8-18.3c1.8-5.1,6.6-7.7,13.2-7.3
			c9.2,0.6,16.3,4.8,20.8,13c1.9,3.4,2,7.1,1.2,10.8c-1,5.1-5,8.2-10.7,8.7C116.1,361.9,115,361.9,113.9,362z M116.1,359.8
			c1-0.4,2.7-0.8,4.3-1.7c0.6-0.3,1.3-1.7,1-2.1c-0.6-1.2-1.6-0.9-2.6-0.2c-2.5,1.7-5.1,1.5-7.5-0.1c-1.2-0.7-2-1.9-3.2-2.7
			c-0.6-0.4-1.5-0.3-2.3-0.4c0,0.7-0.2,1.6,0.1,2.1C108.3,357.8,111.4,359.4,116.1,359.8z M122,347.1c-0.3-0.9-0.4-1.9-0.9-2.8
			c-0.3-0.5-1.1-0.7-1.6-1c-0.3,0.6-0.9,1.3-1,1.9c-0.1,1.1,0.2,2.1,0.5,3.2c0.2,0.5,0.6,1.2,1.1,1.4c0.4,0.1,1.2-0.2,1.4-0.6
			C121.8,348.6,121.8,347.9,122,347.1z M106.6,345.1c-0.2,0.1-0.3,0.2-0.5,0.4c0.6,0.7,1.1,1.4,1.7,2c0.5-0.7,1.3-1.4,1.5-2.3
			c0.2-0.9,0-1.9-0.3-2.8c-0.2-0.5-1-0.8-1.6-1.2c-0.4,0.6-1,1.1-1.1,1.7C106.2,343.6,106.5,344.4,106.6,345.1z"/>
		<path d="M523.6,323.2c-2.1-1-4.4-1.9-6.4-3.1c-0.5-0.3-0.9-2-0.5-2.6c0.7-1.2,1.6-0.3,2.3,0.4c3.5,2.8,8.7,2.4,11.9-0.8
			c0.6-0.6,1.7-0.6,2.6-0.8c-0.2,0.9,0,2-0.5,2.7c-1.9,2.4-5.5,3.8-9.1,3.8C523.8,322.8,523.7,323,523.6,323.2z"/>
		<path d="M516.5,309.4c0.2-1,0.3-2.1,0.7-3c0.2-0.5,1.2-0.8,1.7-0.8c0.4,0,0.8,1,0.9,1.5c0.1,1.1,0,2.2-0.3,3.3
			c-0.2,0.7-0.8,1.3-1.2,2c-0.5-0.6-1.1-1.2-1.5-1.9c-0.2-0.3,0-0.7,0-1.1C516.6,309.4,516.6,309.4,516.5,309.4z"/>
		<path d="M534.3,308.8c-0.9,1.5,0.2,3.8-2.2,3.6c-2.3-0.1-0.9-2.2-1.1-3.3c0-0.1,0-0.1,0-0.2c0.2-1.2-0.6-3.1,1.5-2.9
			C533.2,306,533.7,307.8,534.3,308.8z"/>
		<path d="M680.4,188c-4-0.2-7.3-3.6-7.1-6.8c0-0.6,0.9-1.2,1.3-1.8c0.4,0.5,1.2,1,1.3,1.6c0.2,2.6,2,3.5,4.2,4.2
			c0.6,0.2,1.3,1,1.5,1.7C681.7,187.2,680.7,187.8,680.4,188z"/>
		<path d="M686.8,177.1c-0.7,0.5-1.1,1-1.7,1.4c-0.9,0.7-1.8,1.3-2.8,1.9c-0.5,0.3-1.3,0.6-1.7,0.4c-0.4-0.2-0.8-1-0.8-1.6
			c0.2-2,4-4.2,5.8-3.4C686,176,686.2,176.5,686.8,177.1z"/>
		<path d="M690.5,180c0.9,0.9,1.7,1.4,1.8,1.9c0.1,0.4-0.6,1.1-1.2,1.5c-0.8,0.6-1.6,1.2-2.6,1.5c-0.6,0.3-1.4,0.1-2.1,0.2
			c0-0.7-0.3-1.6,0.1-1.9C687.6,182.1,688.9,181.2,690.5,180z"/>
		<path d="M399.4,89.2c-5.3-0.3-9.9-1.3-14-3.6c-0.2-0.1-0.5-0.2-0.6-0.3c-0.3-0.8-0.6-1.6-0.8-2.4c0.8,0,1.7-0.4,2.3,0
			c3.8,2.1,7.8,3.2,12,3.4c3.1,0.1,6.1-0.1,8-3.2c0.2-0.4,1.5-0.5,1.6-0.4c0.4,0.6,0.8,1.8,0.6,2c-1.3,1.3-2.7,2.8-4.3,3.5
			C402.6,89,400.6,89,399.4,89.2z"/>
		<path d="M385.5,73.7c1.7,0.9,3.6,1.7,5.3,2.8c0.4,0.3,0.3,1.3,0.4,2c-0.7,0-1.7,0.4-2.2,0c-1.9-1.5-3.8-2-6.2-1
			c-0.5,0.2-1.3-0.4-2-0.7c0.3-0.6,0.4-1.5,0.9-1.7C382.8,74.6,384,74.3,385.5,73.7z"/>
		<path d="M409.3,77.9c-0.3,0.3-0.6,1-1,1.1c-0.4,0.2-1.3,0-1.5-0.3c-1.6-2.1-3.4-2.4-5.6-1c-0.4,0.2-1.4-0.2-1.9-0.5
			c-0.2-0.2-0.1-1.2,0.1-1.5c2-2.6,8.1-1.8,9.5,1.2C409,77.1,409.1,77.4,409.3,77.9z"/>
		<path d="M309.3,609.5c-5.9-0.4-10.3-1.8-13.9-5.2c-0.7-0.6-1.4-1.4-1.7-2.3c-0.2-0.6,0.3-1.4,0.5-2.1c0.6,0.2,1.5,0.2,1.8,0.6
			c2.9,3.8,6.9,5.5,11.5,5.9c1.7,0.2,3.5-0.7,5.3-0.9c0.8-0.1,1.7,0,2.6,0c-0.4,0.7-0.6,1.8-1.2,2.1
			C312.3,608.6,310.3,609.1,309.3,609.5z"/>
		<path d="M295.2,591.7c2.5,0.3,4.7,1,6,3.1c0.4,0.6,0.2,1.7,0.2,2.6c-0.8-0.2-1.8-0.3-2.4-0.8c-1.3-1.2-2.6-2.1-4.5-1.8
			c-0.7,0.1-1.5-0.5-2.3-0.8c0.5-0.7,1-1.4,1.6-2C294.2,591.7,294.8,591.8,295.2,591.7z"/>
		<path d="M311.9,594.9c1.6,1,3.2,1.8,4.7,2.9c0.3,0.2,0.4,1.5,0.1,1.7c-0.4,0.4-1.5,0.6-1.9,0.4c-1.7-1.3-3.3-2.3-5.4-0.7
			c-0.2,0.2-1.3-0.3-1.6-0.7c-0.2-0.3,0-1.3,0.3-1.5C309.3,596.2,310.5,595.7,311.9,594.9z"/>
		<path d="M303,343.2c-7.7-0.4-12.3-7.8-12.7-13.4c0-0.5,0.9-1.1,1.3-1.7c0.5,0.5,1.2,0.9,1.4,1.4c0.8,3.3,1.9,6.4,4.7,8.5
			c2.8,2.1,5.7,2.2,8.8,0.9c0.5-0.2,1-0.7,1.6-0.7c0.7-0.1,1.4,0.2,2.1,0.3c-0.2,0.7-0.3,1.8-0.8,2
			C307.4,341.6,305.2,342.3,303,343.2z"/>
		<path d="M304.1,333.6c-0.6-0.9-1.3-1.6-1.2-1.8c0.7-1.5,1.6-2.8,2.5-4.2c0.1-0.1,1.5,0.5,1.5,0.7c-0.1,1-0.3,2.1-0.8,3
			C305.7,332,305,332.6,304.1,333.6z"/>
		<path d="M296.5,328.6c-0.2-0.1-0.9-0.3-0.9-0.5c0.2-1.2,0.2-2.4,0.8-3.5c0.4-0.7,1.4-1.1,2.2-1.5c0.2-0.1,0.8,0.4,1,0.7
			C300,324.8,297.8,328.5,296.5,328.6z"/>
		<path d="M118.4,98.2c-5.4-0.5-10-1.3-14-3.8c-0.7-0.4-1.5-1.8-1.2-2.3c0.5-1.3,1.6-0.7,2.6-0.2c4.4,2.3,9.1,3.6,14.1,3.2
			c2.1-0.1,4-0.9,5.4-2.7c0.4-0.5,1.4-0.5,2.2-0.7c0.1,0.8,0.5,1.9,0.1,2.3c-1.1,1.2-2.4,2.5-3.9,3.1
			C121.8,97.8,119.7,97.9,118.4,98.2z"/>
		<path d="M104.7,82.8c1.7,0.9,3.6,1.7,5.4,2.8c0.4,0.2,0.3,1.2,0.5,1.9c-0.7,0.1-1.8,0.6-2.1,0.2c-2-1.7-4.1-2.2-6.6-1
			c-0.4,0.2-1.4-0.3-1.6-0.7c-0.2-0.4,0.1-1.4,0.5-1.7C101.8,83.7,103.1,83.4,104.7,82.8z"/>
		<path d="M128.4,86.9c-0.4,0.5-0.7,1.1-1.1,1.2c-0.4,0.1-1.3-0.1-1.5-0.4c-1.5-2-3.3-2.2-5.4-1.1c-0.5,0.3-1.4-0.4-2.2-0.6
			c0.3-0.6,0.4-1.4,0.9-1.7c2.5-2,6.4-1.5,8.3,0.9C127.8,85.7,128,86.2,128.4,86.9z"/>
		<path d="M879.9,397.3c-1.1-0.5-3-1.2-4.7-2.2c-0.4-0.3-0.3-1.5-0.4-2.3c0.7,0,1.7-0.3,2.1,0.1c2.4,2,4.9,1.7,7.5,0.9
			c4.3-1.3,8-3.7,11.2-6.8c0.7-0.7,1.5-1.6,2.3-0.5c0.4,0.5,0.2,1.9-0.3,2.4C893.1,393.6,887.6,396.6,879.9,397.3z"/>
		<path d="M896.4,377.9c0.5,0.1,1.1,0,1.5,0.3c0.5,0.4,0.8,1,1.2,1.5c-0.6,0.4-1.2,1.3-1.7,1.2c-2.5-0.4-4,0.8-5.4,2.6
			c-0.4,0.5-1.4,0.5-2.1,0.8c-0.1-0.8-0.5-1.8-0.2-2.3C891.1,379.4,893.4,378.2,896.4,377.9z"/>
		<path d="M879.2,386c-1.8-0.3-3.2,0.4-3.9,2.1c-0.4,1-1,1.9-2.1,1.1c-0.5-0.4-0.8-1.7-0.5-2.4c1-3,5.6-4.7,8.3-3.2
			c0.4,0.2,0.9,0.9,0.8,1.3c-0.1,0.4-0.7,0.9-1.1,1.1C880.3,386.2,879.7,386,879.2,386z"/>
		<path d="M891.5,90.7c-3.3-0.2-6.5-0.7-9.3-3c-1-0.8-1.6-1.7-0.7-2.8c0.9-1.1,1.6-0.2,2.4,0.4c2.5,1.8,5.3,2.7,8.3,2.4
			c1.6-0.2,3.1-1.4,4.6-2.1c0.6-0.3,1.4-0.2,2.1-0.3c0.1,0.7,0.4,1.6,0.1,2.1C897.4,90.3,894.5,90.6,891.5,90.7z"/>
		<path d="M893.4,79.2c0.7-0.9,1.4-2.7,2-2.6c2.1,0.1,1.3,2,1.4,3.3c0,0.4,0.1,1-0.2,1.3c-0.4,0.6-1,1-1.5,1.5
			c-0.4-0.6-0.9-1.1-1.2-1.8c-0.2-0.4,0-0.9,0-1.3C893.7,79.5,893.6,79.4,893.4,79.2z"/>
		<path d="M882.7,79.1c0.4-1.1-0.6-3.4,1.8-3.1c2.4,0.3,0.9,2.3,1,3.6c0,0.4,0.1,0.8-0.1,1.1c-0.4,0.5-1,1-1.5,1.5
			c-0.4-0.5-0.9-1-1.2-1.5C882.5,80.3,882.7,79.7,882.7,79.1z"/>
		<path d="M133.8,617.2c-2.6-0.8-4.7-1.4-6.7-2.3c-0.5-0.2-0.6-1.4-0.9-2.1c0.8-0.1,1.7-0.5,2.3-0.3c5.4,2.5,13.8,0.5,17.5-4.2
			c0.4-0.5,1.3-0.6,2-1c0.1,0.9,0.7,2.1,0.3,2.5c-1.3,1.5-2.6,3.2-4.3,4C140.7,615.4,137,616.2,133.8,617.2z"/>
		<path d="M149.1,602.8c-0.7,0.4-1.5,1.2-2,1c-2.2-0.8-3.6,0.2-5,1.8c-0.4,0.4-1.2,0.4-1.9,0.6c-0.2-0.7-0.7-1.5-0.5-2.1
			c0.7-2.4,5.6-4.3,7.9-3.2c0.6,0.3,1.2,0.6,1.7,0.9C149.3,602.1,149.2,602.5,149.1,602.8z"/>
		<path d="M130.3,603.6c1.4,0.7,2.5,1.1,3.4,1.7c0.4,0.3,0.5,1.3,0.3,1.7c-0.3,0.4-1.3,0.8-1.6,0.6c-1.9-1.2-3.3-0.5-4.8,0.7
			c-0.4,0.3-1.6,0.1-1.9-0.2c-0.3-0.4-0.2-1.6,0.1-1.9C127.2,605.2,128.8,604.4,130.3,603.6z"/>
		<path d="M603.1,644.6c-6.3-0.5-11.2-1.9-14.9-6c-0.3-0.3-0.8-0.7-0.8-1.1c0-0.8,0.2-1.6,0.3-2.3c0.7,0.2,1.6,0.3,2,0.8
			c3.9,4.3,8.8,6.1,14.5,5.5c1-0.1,1.9-0.9,2.9-1.1c0.7-0.1,1.4,0.1,2.2,0.2c-0.2,0.7-0.3,1.8-0.7,2
			C606.5,643.5,604.3,644.2,603.1,644.6z"/>
		<path d="M589.6,627.8c3.1,0.4,5.4,1.2,6.6,3.8c0.2,0.5,0,1.6-0.3,1.8c-0.4,0.3-1.5,0.1-1.9-0.3c-1.5-1.8-3.1-3.1-5.7-2.1
			c-0.3,0.1-1.2-0.4-1.3-0.8c-0.1-0.5,0-1.5,0.4-1.7C588.1,628.1,589.1,627.9,589.6,627.8z"/>
		<path d="M606.6,631.1c1.5,0.9,3.1,1.7,4.5,2.7c0.4,0.3,0.3,1.2,0.4,1.9c-0.7,0.1-1.7,0.5-2.1,0.2c-1.6-1.3-3.2-2.1-5.2-0.7
			c-0.3,0.2-1.4-0.2-1.6-0.6c-0.2-0.4,0-1.4,0.4-1.7C604,632.2,605.1,631.7,606.6,631.1z"/>
		<path d="M855.5,630.1c-2.3-0.9-4.6-1.7-6.8-2.7c-0.4-0.2-0.4-1.3-0.7-2c0.7-0.1,1.6-0.7,2-0.4c7.4,4.5,13.1-0.9,14.7-7.1
			c0.1-0.4,0.1-0.9,0.3-1.3c0.4-0.6,0.9-1.1,1.4-1.7c0.5,0.7,1.4,1.5,1.3,2.2c-0.7,4.4-2.5,8.2-6.5,10.6
			C859.7,628.8,857.7,629.2,855.5,630.1z"/>
		<path d="M859.7,609.3c0.4,0.8,0.9,1.5,1.2,2.3c0.4,1.1,0.6,2.2,0.7,3.3c0,0.2-1.1,0.8-1.1,0.7c-0.9-1-1.8-2-2.5-3.1
			c-0.3-0.5-0.3-1.2-0.1-1.8c0.1-0.3,0.7-0.5,1-0.7C859.1,609.7,859.4,609.5,859.7,609.3z"/>
		<path d="M854.6,618.3c-0.3,0.5-0.5,1.1-0.9,1.3c-0.5,0.2-1.4,0.2-1.6-0.1c-0.8-1.1-1.6-2.3-2-3.6c-0.4-1.1,1.1-2.2,1.9-1.4
			C853,615.6,853.7,617,854.6,618.3z"/>
		<path d="M116.1,359.8c-4.7-0.3-7.8-2-10.1-5.1c-0.3-0.5-0.1-1.4-0.1-2.1c0.8,0.1,1.7,0,2.3,0.4c1.1,0.8,2,2,3.2,2.7
			c2.4,1.5,5,1.8,7.5,0.1c1-0.7,2.1-1,2.6,0.2c0.2,0.5-0.4,1.8-1,2.1C118.9,358.9,117.1,359.4,116.1,359.8z"/>
		<path d="M122,347.1c-0.2,0.8-0.2,1.5-0.5,2c-0.2,0.4-1.1,0.7-1.4,0.6c-0.5-0.2-1-0.8-1.1-1.4c-0.3-1-0.5-2.1-0.5-3.2
			c0-0.7,0.6-1.3,1-1.9c0.6,0.3,1.4,0.5,1.6,1C121.6,345.2,121.7,346.2,122,347.1z"/>
		<path d="M106.6,345.1c-0.1-0.7-0.4-1.5-0.3-2.2c0.1-0.6,0.7-1.1,1.1-1.7c0.5,0.4,1.4,0.7,1.6,1.2c0.3,0.9,0.5,1.9,0.3,2.8
			c-0.2,0.8-1,1.5-1.5,2.3c-0.6-0.7-1.1-1.4-1.7-2C106.3,345.4,106.4,345.3,106.6,345.1z"/>
	</g>
</g>
<rect x="565.5" y="258.8" class="st1" width="325.4" height="101.5"/>
<text transform="matrix(1 0 0 1 565.4663 302.6621)" class="st2 st3">intervals</text>
</svg>
